# Blender 4.5.2 LTS
# www.blender.org
mtllib alpaca.mtl
o Object_0
v 0.274359 0.064743 -0.657538
v 0.274359 0.064743 -0.657538
v 0.196068 0.064781 -0.612337
v 0.196068 0.064781 -0.612337
v 0.196069 0.064781 -0.521934
v 0.196069 0.064781 -0.521934
v 0.274360 0.065434 -0.497295
v 0.274360 0.065434 -0.497295
v 0.352650 0.064704 -0.521934
v 0.352650 0.064704 -0.521934
v 0.352650 0.064704 -0.612337
v 0.352650 0.064704 -0.612337
v 0.276480 0.289754 -0.737472
v 0.276480 0.289754 -0.737472
v 0.276480 0.289754 -0.737472
v 0.276480 0.289754 -0.737472
v 0.184164 0.289799 -0.705298
v 0.184164 0.289799 -0.705298
v 0.184164 0.289799 -0.705298
v 0.184164 0.289799 -0.705298
v 0.184164 0.289799 -0.598700
v 0.184164 0.289799 -0.598700
v 0.184164 0.289799 -0.598700
v 0.184164 0.289799 -0.598700
v 0.276480 0.289754 -0.524277
v 0.276480 0.289754 -0.524277
v 0.276480 0.289754 -0.524277
v 0.276480 0.289754 -0.524277
v 0.368795 0.289709 -0.577576
v 0.368795 0.289709 -0.577576
v 0.368795 0.289709 -0.577576
v 0.368795 0.289709 -0.577576
v 0.368795 0.289709 -0.684173
v 0.368795 0.289709 -0.684173
v 0.368795 0.289709 -0.684173
v 0.368795 0.289709 -0.684173
v 0.274552 0.458176 -0.790127
v 0.274552 0.458176 -0.790127
v 0.274552 0.458176 -0.790127
v 0.274552 0.458176 -0.790127
v 0.166974 0.458229 -0.728017
v 0.166974 0.458229 -0.728017
v 0.166974 0.458229 -0.728017
v 0.166974 0.458229 -0.728017
v 0.166974 0.458229 -0.603797
v 0.166974 0.458229 -0.603797
v 0.166974 0.458229 -0.603797
v 0.166974 0.458229 -0.603797
v 0.274552 0.458176 -0.541687
v 0.274552 0.458176 -0.541687
v 0.274552 0.458176 -0.541687
v 0.274552 0.458176 -0.541687
v 0.382130 0.458124 -0.603797
v 0.382130 0.458124 -0.603797
v 0.382130 0.458124 -0.603797
v 0.382130 0.458124 -0.603797
v 0.382130 0.458124 -0.728017
v 0.382130 0.458124 -0.728017
v 0.382130 0.458124 -0.728017
v 0.382130 0.458124 -0.728017
v 0.274177 0.809893 -0.806842
v 0.274177 0.809893 -0.806842
v 0.274177 0.809893 -0.806842
v 0.274177 0.809893 -0.806842
v 0.126598 0.795841 -0.745480
v 0.126598 0.795841 -0.745480
v 0.126598 0.795841 -0.745480
v 0.126598 0.795841 -0.745480
v 0.126584 0.768008 -0.576726
v 0.126584 0.768008 -0.576726
v 0.126584 0.768008 -0.576726
v 0.126584 0.768008 -0.576726
v 0.274149 0.752179 -0.444384
v 0.274149 0.752179 -0.444384
v 0.274149 0.752179 -0.444384
v 0.274149 0.752179 -0.444384
v 0.423371 0.767763 -0.551840
v 0.423371 0.767763 -0.551840
v 0.423371 0.767763 -0.551840
v 0.423371 0.767763 -0.551840
v 0.392277 0.795817 -0.721842
v 0.392277 0.795817 -0.721842
v 0.392277 0.795817 -0.721842
v 0.392277 0.795817 -0.721842
v 0.235095 1.269134 -0.918997
v 0.235095 1.269134 -0.918997
v 0.235095 1.269134 -0.918997
v 0.235095 1.269134 -0.918997
v 0.059581 1.188098 -0.737274
v 0.059581 1.188098 -0.737274
v 0.059581 1.188098 -0.737274
v 0.059581 1.188098 -0.737274
v 0.075811 1.126347 -0.584665
v 0.075811 1.126347 -0.584665
v 0.075811 1.126347 -0.584665
v 0.075811 1.126347 -0.584665
v 0.235058 1.193214 -0.451064
v 0.235058 1.193214 -0.451064
v 0.235058 1.193214 -0.451064
v 0.235058 1.193214 -0.451064
v 0.463486 1.305100 -0.584669
v 0.463486 1.305100 -0.584669
v 0.463486 1.305100 -0.584669
v 0.463486 1.305100 -0.584669
v 0.403547 1.345563 -0.790506
v 0.403547 1.345563 -0.790506
v 0.403547 1.345563 -0.790506
v 0.403547 1.345563 -0.790506
v 0.195335 0.087725 -0.539541
v 0.195335 0.087725 -0.539541
v 0.195335 0.087725 -0.539541
v 0.195335 0.087725 -0.539541
v 0.195335 0.087725 -0.630803
v 0.195335 0.087725 -0.630803
v 0.195335 0.087725 -0.630803
v 0.195335 0.087725 -0.630803
v 0.353406 0.087648 -0.630803
v 0.353406 0.087648 -0.630803
v 0.353406 0.087648 -0.630803
v 0.353406 0.087648 -0.630803
v 0.353406 0.087648 -0.539541
v 0.353406 0.087648 -0.539541
v 0.353406 0.087648 -0.539541
v 0.353406 0.087648 -0.539541
v 0.274371 0.087687 -0.676435
v 0.274371 0.087687 -0.676435
v 0.274371 0.087687 -0.676435
v 0.274371 0.087687 -0.676435
v 0.274370 0.086446 -0.506315
v 0.274370 0.086446 -0.506315
v 0.274370 0.086446 -0.506315
v 0.274370 0.086446 -0.506315
v 0.131727 0.593664 -0.772881
v 0.131727 0.593664 -0.772881
v 0.131727 0.593664 -0.772881
v 0.131727 0.593664 -0.772881
v 0.274626 0.608708 -0.853983
v 0.274626 0.608708 -0.853983
v 0.274626 0.608708 -0.853983
v 0.274626 0.608708 -0.853983
v 0.403068 0.593532 -0.772881
v 0.403068 0.593532 -0.772881
v 0.403068 0.593532 -0.772881
v 0.403068 0.593532 -0.772881
v 0.417495 0.563297 -0.610676
v 0.417495 0.563297 -0.610676
v 0.417495 0.563297 -0.610676
v 0.417495 0.563297 -0.610676
v 0.274597 0.548253 -0.529574
v 0.274597 0.548253 -0.529574
v 0.274597 0.548253 -0.529574
v 0.274597 0.548253 -0.529574
v 0.131712 0.563437 -0.610676
v 0.131712 0.563437 -0.610676
v 0.131712 0.563437 -0.610676
v 0.131712 0.563437 -0.610676
v 0.195488 1.432434 -0.974338
v 0.195488 1.432434 -0.974338
v 0.195488 1.432434 -0.974338
v 0.195488 1.432434 -0.974338
v -0.000616 1.296628 -0.909545
v -0.000616 1.296628 -0.909545
v -0.000616 1.296628 -0.909545
v -0.000674 1.177318 -0.493217
v -0.000674 1.177318 -0.493217
v -0.000674 1.177318 -0.493217
v 0.292158 1.353433 -0.385863
v 0.292158 1.353433 -0.385863
v 0.292158 1.353433 -0.385863
v 0.292158 1.353433 -0.385863
v 0.418488 1.570858 -0.466264
v 0.418488 1.570858 -0.466264
v 0.418488 1.570858 -0.466264
v 0.418488 1.570858 -0.466264
v 0.418488 1.570858 -0.466264
v 0.357680 1.559367 -0.775849
v 0.357680 1.559367 -0.775849
v 0.357680 1.559367 -0.775849
v 0.357680 1.559367 -0.775849
v 0.297064 1.739620 -0.432910
v 0.297064 1.739620 -0.432910
v 0.297064 1.739620 -0.432910
v 0.297064 1.739620 -0.432910
v 0.274483 1.718719 -0.766706
v 0.274483 1.718719 -0.766706
v 0.274483 1.718719 -0.766706
v 0.274483 1.718719 -0.766706
v 0.164102 1.842885 -0.391287
v 0.164102 1.842885 -0.391287
v 0.164102 1.842885 -0.391287
v 0.164102 1.842885 -0.391287
v 0.169880 1.840898 -0.675845
v 0.169880 1.840898 -0.675845
v 0.169880 1.840898 -0.675845
v 0.169880 1.840898 -0.675845
v -0.000298 1.945334 -0.400327
v -0.000298 1.945334 -0.400327
v -0.000315 1.910315 -0.657834
v -0.000315 1.910315 -0.657834
v 0.404111 1.036473 -0.758162
v 0.404111 1.036473 -0.758162
v 0.404111 1.036473 -0.758162
v 0.404111 1.036473 -0.758162
v 0.437709 1.003175 -0.566374
v 0.437709 1.003175 -0.566374
v 0.437709 1.003175 -0.566374
v 0.437709 1.003175 -0.566374
v 0.251935 0.958845 -0.443624
v 0.251935 0.958845 -0.443624
v 0.251935 0.958845 -0.443624
v 0.251935 0.958845 -0.443624
v 0.097790 0.926196 -0.570431
v 0.097790 0.926196 -0.570431
v 0.097790 0.926196 -0.570431
v 0.097790 0.926196 -0.570431
v 0.095673 0.941466 -0.734705
v 0.095673 0.941466 -0.734705
v 0.095673 0.941466 -0.734705
v 0.095673 0.941466 -0.734705
v 0.255867 1.032878 -0.865001
v 0.255867 1.032878 -0.865001
v 0.255867 1.032878 -0.865001
v 0.255867 1.032878 -0.865001
v 0.133137 1.840490 -0.160146
v 0.133137 1.840490 -0.160146
v 0.133137 1.840490 -0.160146
v 0.133137 1.840490 -0.160146
v -0.000312 1.915993 -0.126479
v -0.000312 1.915993 -0.126479
v 0.132411 1.828155 0.111300
v 0.132411 1.828155 0.111300
v 0.132411 1.828155 0.111300
v 0.132411 1.828155 0.111300
v -0.000326 1.887617 0.116745
v -0.000326 1.887617 0.116745
v 0.125053 1.844568 0.320823
v 0.125053 1.844568 0.320823
v 0.125053 1.844568 0.320823
v 0.125053 1.844568 0.320823
v -0.000313 1.913406 0.333246
v -0.000313 1.913406 0.333246
v 0.274361 0.066739 0.319953
v 0.274361 0.066739 0.319953
v 0.196070 0.066778 0.365154
v 0.196070 0.066778 0.365154
v 0.196070 0.066778 0.455557
v 0.196070 0.066778 0.455557
v 0.274361 0.067431 0.480196
v 0.274361 0.067431 0.480196
v 0.352651 0.066701 0.455557
v 0.352651 0.066701 0.455557
v 0.352651 0.066701 0.365154
v 0.352651 0.066701 0.365154
v 0.274458 0.265265 0.298299
v 0.274458 0.265265 0.298299
v 0.274458 0.265265 0.298299
v 0.274458 0.265265 0.298299
v 0.182142 0.265310 0.351598
v 0.182142 0.265310 0.351598
v 0.182142 0.265310 0.351598
v 0.182142 0.265310 0.351598
v 0.182142 0.265310 0.458195
v 0.182142 0.265310 0.458195
v 0.182142 0.265310 0.458195
v 0.182142 0.265310 0.458195
v 0.274458 0.265265 0.511493
v 0.274458 0.265265 0.511493
v 0.274458 0.265265 0.511493
v 0.274458 0.265265 0.511493
v 0.366774 0.265220 0.458195
v 0.366774 0.265220 0.458195
v 0.366774 0.265220 0.458195
v 0.366774 0.265220 0.458195
v 0.366774 0.265220 0.351598
v 0.366774 0.265220 0.351598
v 0.366774 0.265220 0.351598
v 0.366774 0.265220 0.351598
v 0.274574 0.453472 0.280228
v 0.274574 0.453472 0.280228
v 0.274574 0.453472 0.280228
v 0.274574 0.453472 0.280228
v 0.157531 0.453529 0.347803
v 0.157531 0.453529 0.347803
v 0.157531 0.453529 0.347803
v 0.157531 0.453529 0.347803
v 0.157531 0.453529 0.482952
v 0.157531 0.453529 0.482952
v 0.157531 0.453529 0.482952
v 0.157531 0.453529 0.482952
v 0.274574 0.453472 0.550527
v 0.274574 0.453472 0.550527
v 0.274574 0.453472 0.550527
v 0.274574 0.453472 0.550527
v 0.391616 0.453415 0.482952
v 0.391616 0.453415 0.482952
v 0.391616 0.453415 0.482952
v 0.391616 0.453415 0.482952
v 0.391616 0.453415 0.347803
v 0.391616 0.453415 0.347803
v 0.391616 0.453415 0.347803
v 0.391616 0.453415 0.347803
v 0.274685 0.728485 0.250876
v 0.274685 0.728485 0.250876
v 0.274685 0.728485 0.250876
v 0.274685 0.728485 0.250876
v 0.136579 0.728553 0.330611
v 0.136579 0.728553 0.330611
v 0.136579 0.728553 0.330611
v 0.136579 0.728553 0.330611
v 0.136579 0.728553 0.490082
v 0.136579 0.728553 0.490082
v 0.136579 0.728553 0.490082
v 0.136579 0.728553 0.490082
v 0.274686 0.730372 0.590570
v 0.274686 0.730372 0.590570
v 0.274686 0.730372 0.590570
v 0.274686 0.730372 0.590570
v 0.412790 0.728418 0.490082
v 0.412790 0.728418 0.490082
v 0.412790 0.728418 0.490082
v 0.412790 0.728418 0.490082
v 0.412790 0.728417 0.330611
v 0.412790 0.728417 0.330611
v 0.412790 0.728417 0.330611
v 0.412790 0.728417 0.330611
v 0.274819 1.002850 0.265092
v 0.274819 1.002850 0.265092
v 0.274819 1.002850 0.265092
v 0.274819 1.002850 0.265092
v 0.072387 0.968030 0.359887
v 0.072387 0.968030 0.359887
v 0.072387 0.968030 0.359887
v 0.072387 0.968030 0.359887
v 0.072387 0.968030 0.359887
v 0.099193 0.968666 0.511745
v 0.099193 0.968666 0.511745
v 0.099193 0.968666 0.511745
v 0.099193 0.968666 0.511745
v 0.099193 0.968666 0.511745
v 0.274799 0.960793 0.610313
v 0.274799 0.960793 0.610313
v 0.274799 0.960793 0.610313
v 0.274799 0.960793 0.610313
v 0.463254 1.077147 0.510551
v 0.463254 1.077147 0.510551
v 0.463254 1.077147 0.510551
v 0.463254 1.077147 0.510551
v 0.422046 1.059225 0.359887
v 0.422046 1.059225 0.359887
v 0.422046 1.059225 0.359887
v 0.422046 1.059225 0.359887
v 0.195336 0.089722 0.450528
v 0.195336 0.089722 0.450528
v 0.195336 0.089722 0.450528
v 0.195336 0.089722 0.450528
v 0.195336 0.089722 0.359265
v 0.195336 0.089722 0.359265
v 0.195336 0.089722 0.359265
v 0.195336 0.089722 0.359265
v 0.353408 0.089645 0.359265
v 0.353408 0.089645 0.359265
v 0.353408 0.089645 0.359265
v 0.353408 0.089645 0.359265
v 0.353408 0.089645 0.450528
v 0.353408 0.089645 0.450528
v 0.353408 0.089645 0.450528
v 0.353408 0.089645 0.450528
v 0.274372 0.089684 0.313633
v 0.274372 0.089684 0.313633
v 0.274372 0.089684 0.313633
v 0.274372 0.089684 0.313633
v 0.274371 0.088443 0.483753
v 0.274371 0.088443 0.483753
v 0.274371 0.088443 0.483753
v 0.274371 0.088443 0.483753
v 0.146539 0.535715 0.343817
v 0.146539 0.535715 0.343817
v 0.146539 0.535715 0.343817
v 0.146539 0.535715 0.343817
v 0.274590 0.535652 0.269886
v 0.274590 0.535652 0.269886
v 0.274590 0.535652 0.269886
v 0.274590 0.535652 0.269886
v 0.402642 0.535589 0.343817
v 0.402642 0.535589 0.343817
v 0.402642 0.535589 0.343817
v 0.402642 0.535589 0.343817
v 0.402642 0.535589 0.491678
v 0.402642 0.535589 0.491678
v 0.402642 0.535589 0.491678
v 0.402642 0.535589 0.491678
v 0.274590 0.535652 0.565608
v 0.274590 0.535652 0.565608
v 0.274590 0.535652 0.565608
v 0.274590 0.535652 0.565608
v 0.146539 0.535715 0.491678
v 0.146539 0.535715 0.491678
v 0.146539 0.535715 0.491678
v 0.146539 0.535715 0.491678
v 0.197357 1.233667 0.169604
v 0.197357 1.233667 0.169604
v 0.197357 1.233667 0.169604
v 0.197357 1.233667 0.169604
v -0.000744 1.034945 0.260511
v -0.000744 1.034945 0.260511
v -0.000744 1.034945 0.260511
v -0.000720 1.083169 0.850480
v -0.000720 1.083169 0.850480
v -0.000720 1.083169 0.850480
v 0.172302 1.220473 0.793118
v 0.172302 1.220473 0.793118
v 0.172302 1.220473 0.793118
v 0.172302 1.220473 0.793118
v 0.427559 1.385511 0.596440
v 0.427559 1.385511 0.596440
v 0.427559 1.385511 0.596440
v 0.427559 1.385511 0.596440
v 0.403084 1.473998 0.310123
v 0.403084 1.473998 0.310123
v 0.403084 1.473998 0.310123
v 0.403084 1.473998 0.310123
v 0.403084 1.473998 0.310123
v 0.275052 1.654831 0.644673
v 0.275052 1.654831 0.644673
v 0.275052 1.654831 0.644673
v 0.275052 1.654831 0.644673
v 0.275052 1.654831 0.644673
v 0.263317 1.708179 0.320419
v 0.263317 1.708179 0.320419
v 0.263317 1.708179 0.320419
v 0.263317 1.708179 0.320419
v 0.134417 1.808418 0.578665
v 0.134417 1.808418 0.578665
v 0.134417 1.808418 0.578665
v 0.134417 1.808418 0.578665
v -0.000314 1.912791 0.574400
v -0.000314 1.912791 0.574400
v 0.201553 1.465729 0.826957
v 0.201553 1.465729 0.826957
v 0.201553 1.465729 0.826957
v 0.201553 1.465729 0.826957
v 0.235682 1.682265 -0.199313
v 0.235682 1.682265 -0.199313
v 0.235682 1.682265 -0.199313
v 0.235682 1.682265 -0.199313
v 0.261472 1.709250 0.083227
v 0.261472 1.709250 0.083227
v 0.261472 1.709250 0.083227
v 0.261472 1.709250 0.083227
v 0.299735 1.397658 -0.229595
v 0.299735 1.397658 -0.229595
v 0.299735 1.397658 -0.229595
v 0.299735 1.397658 -0.229595
v 0.238983 1.223109 0.002985
v 0.238983 1.223109 0.002985
v 0.238983 1.223109 0.002985
v 0.238983 1.223109 0.002985
v 0.352880 1.408781 0.049981
v 0.352880 1.408781 0.049981
v 0.352880 1.408781 0.049981
v 0.352880 1.408781 0.049981
v 0.229555 1.212388 -0.239787
v 0.229555 1.212388 -0.239787
v 0.229555 1.212388 -0.239787
v 0.229555 1.212388 -0.239787
v -0.000755 1.012077 -0.032043
v -0.000755 1.012077 -0.032043
v -0.000743 1.036977 -0.267606
v -0.000743 1.036977 -0.267606
v 0.202003 1.679145 -0.900831
v 0.202003 1.679145 -0.900831
v 0.202003 1.679145 -0.900831
v 0.202003 1.679145 -0.900831
v 0.047127 1.770152 -0.854095
v 0.047127 1.770152 -0.854095
v 0.047127 1.770152 -0.854095
v 0.047127 1.770152 -0.854095
v 0.047127 1.770152 -0.854095
v -0.000356 1.826505 -0.827291
v -0.000356 1.826505 -0.827291
v 0.124790 1.861793 0.665370
v 0.124790 1.861793 0.665370
v 0.124790 1.861793 0.665370
v 0.124790 1.861793 0.665370
v -0.000590 1.349783 1.012290
v -0.000590 1.349783 1.012290
v 0.220555 1.760504 0.757967
v 0.220555 1.760504 0.757967
v 0.220555 1.760504 0.757967
v 0.220555 1.760504 0.757967
v 0.121530 1.972269 0.720274
v 0.121530 1.972269 0.720274
v 0.121530 1.972269 0.720274
v 0.121530 1.972269 0.720274
v 0.198538 1.948193 0.850452
v 0.198538 1.948193 0.850452
v 0.198538 1.948193 0.850452
v 0.198538 1.948193 0.850452
v -0.000303 1.933991 0.621578
v -0.000303 1.933991 0.621578
v -0.000261 2.020863 0.676049
v -0.000261 2.020863 0.676049
v 0.145333 1.651317 0.891887
v 0.145333 1.651317 0.891887
v 0.145333 1.651317 0.891887
v 0.145333 1.651317 0.891887
v 0.133980 1.928105 0.988554
v 0.133980 1.928105 0.988554
v 0.133980 1.928105 0.988554
v 0.133980 1.928105 0.988554
v -0.000452 1.631050 1.062855
v -0.000452 1.631050 1.062855
v -0.000294 1.952651 1.060685
v -0.000294 1.952651 1.060685
v 0.106278 2.347925 0.748922
v 0.106278 2.347925 0.748922
v 0.106278 2.347925 0.748922
v 0.106278 2.347925 0.748922
v 0.190430 2.325770 0.867666
v 0.190430 2.325770 0.867666
v 0.190430 2.325770 0.867666
v 0.190430 2.325770 0.867666
v -0.000094 2.360750 0.696601
v -0.000094 2.360750 0.696601
v 0.142383 2.307285 0.998296
v 0.142383 2.307285 0.998296
v 0.142383 2.307285 0.998296
v 0.142383 2.307285 0.998296
v -0.000133 2.282061 1.061398
v -0.000133 2.282061 1.061398
v -0.000204 2.135711 1.059621
v -0.000204 2.135711 1.059621
v 0.139186 2.112263 0.990734
v 0.139186 2.112263 0.990734
v 0.139186 2.112263 0.990734
v 0.139186 2.112263 0.990734
v 0.109497 2.154451 0.735083
v 0.109497 2.154451 0.735083
v 0.109497 2.154451 0.735083
v 0.109497 2.154451 0.735083
v -0.000173 2.200856 0.692279
v -0.000173 2.200856 0.692279
v 0.195458 2.131450 0.858841
v 0.195458 2.131450 0.858841
v 0.195458 2.131450 0.858841
v 0.195458 2.131450 0.858841
v 0.139709 2.543568 0.744788
v 0.139709 2.543568 0.744788
v 0.139709 2.543568 0.744788
v 0.139709 2.543568 0.744788
v 0.199183 2.520591 0.888243
v 0.199183 2.520591 0.888243
v 0.199183 2.520591 0.888243
v 0.199183 2.520591 0.888243
v 0.000003 2.560219 0.691609
v 0.000003 2.560219 0.691609
v 0.147970 2.491004 1.028552
v 0.147970 2.491004 1.028552
v 0.147970 2.491004 1.028552
v 0.147970 2.491004 1.028552
v 0.147970 2.491004 1.028552
v -0.000100 2.348181 1.078835
v -0.000100 2.348181 1.078835
v 0.151754 2.474230 1.148712
v 0.151754 2.474230 1.148712
v 0.151754 2.474230 1.148712
v 0.151754 2.474230 1.148712
v -0.000074 2.401250 1.145817
v -0.000074 2.401250 1.145817
v 0.117904 2.762989 0.818907
v 0.117904 2.762989 0.818907
v 0.117904 2.762989 0.818907
v 0.117904 2.762989 0.818907
v 0.156636 2.769061 0.908876
v 0.156636 2.769061 0.908876
v 0.156636 2.769061 0.908876
v 0.156636 2.769061 0.908876
v 0.000088 2.733028 0.724816
v 0.000088 2.733028 0.724816
v 0.169435 2.677370 1.082767
v 0.169435 2.677370 1.082767
v 0.169435 2.677370 1.082767
v 0.169435 2.677370 1.082767
v 0.151947 2.670382 1.182400
v 0.151947 2.670382 1.182400
v 0.151947 2.670382 1.182400
v 0.151947 2.670382 1.182400
v 0.087086 2.830642 0.852051
v 0.087086 2.830642 0.852051
v 0.087086 2.830642 0.852051
v 0.087086 2.830642 0.852051
v 0.000138 2.835210 0.822506
v 0.000138 2.835210 0.822506
v 0.089923 2.839172 0.948194
v 0.089923 2.839172 0.948194
v 0.089923 2.839172 0.948194
v 0.089923 2.839172 0.948194
v 0.000154 2.867597 0.943062
v 0.000154 2.867597 0.943062
v 0.119135 2.801023 1.057030
v 0.119135 2.801023 1.057030
v 0.119135 2.801023 1.057030
v 0.119135 2.801023 1.057030
v 0.089769 2.774074 1.159788
v 0.089769 2.774074 1.159788
v 0.089769 2.774074 1.159788
v 0.089769 2.774074 1.159788
v 0.000152 2.863649 1.047378
v 0.000152 2.863649 1.047378
v 0.000131 2.819398 1.150012
v 0.000131 2.819398 1.150012
v 0.126872 2.671769 1.236195
v 0.126872 2.671769 1.236195
v 0.126872 2.671769 1.236195
v 0.067627 2.684633 1.254040
v 0.067627 2.684633 1.254040
v 0.067627 2.684633 1.254040
v 0.067627 2.684633 1.254040
v 0.000089 2.734599 1.246315
v 0.000089 2.734599 1.246315
v 0.181650 2.575640 1.066124
v 0.181650 2.575640 1.066124
v 0.181650 2.575640 1.066124
v 0.181650 2.575640 1.066124
v 0.194673 2.608321 0.898216
v 0.194673 2.608321 0.898216
v 0.194673 2.608321 0.898216
v 0.194673 2.608321 0.898216
v 0.134770 2.629976 0.761392
v 0.134770 2.629976 0.761392
v 0.134770 2.629976 0.761392
v 0.134770 2.629976 0.761392
v 0.155863 2.566373 1.189516
v 0.155863 2.566373 1.189516
v 0.155863 2.566373 1.189516
v 0.155863 2.566373 1.189516
v 0.000046 2.646624 0.708213
v 0.000046 2.646624 0.708213
v 0.070725 2.597274 1.306520
v 0.070725 2.597274 1.306520
v 0.000032 2.618154 1.283916
v -0.000064 2.422160 1.244828
v -0.000064 2.422160 1.244828
v 0.123932 2.574141 1.346105
v 0.123932 2.574141 1.346105
v 0.123932 2.574141 1.346105
v 0.123932 2.574141 1.346105
v 0.132780 2.482274 1.248392
v 0.132780 2.482274 1.248392
v 0.132780 2.482274 1.248392
v 0.132780 2.482274 1.248392
v -0.000049 2.451895 1.299893
v 0.079586 2.492683 1.309370
v 0.079586 2.492683 1.309370
v 0.098296 2.534463 1.320545
v 0.190168 2.706051 0.917394
v 0.190168 2.706051 0.917394
v 0.190168 2.706051 0.917394
v 0.190168 2.706051 0.917394
v 0.190168 2.706051 0.917394
v 0.129831 2.716383 0.777995
v 0.129831 2.716383 0.777995
v 0.129831 2.716383 0.777995
v 0.129831 2.716383 0.777995
v 0.129831 2.716383 0.777995
v 0.069094 2.803104 0.819315
v 0.069094 2.803104 0.819315
v 0.069094 2.803104 0.819315
v 0.069094 2.803104 0.819315
v 0.079386 2.835875 0.961598
v 0.079386 2.835875 0.961598
v 0.079386 2.835875 0.961598
v 0.079386 2.835875 0.961598
v 0.079386 2.835875 0.961598
v 0.175903 2.970465 0.922195
v 0.175903 2.970465 0.922195
v 0.175903 2.970465 0.922195
v 0.162751 2.970950 0.905310
v 0.162751 2.970950 0.905310
v 0.162751 2.970950 0.905310
v 0.155279 2.984770 0.914130
v 0.155279 2.984770 0.914130
v 0.155279 2.984770 0.914130
v 0.154417 3.001154 0.932617
v 0.154417 3.001154 0.932617
v 0.154417 3.001154 0.932617
v 0.206710 2.868949 0.916486
v 0.206710 2.868949 0.916486
v 0.206710 2.868949 0.916486
v 0.206710 2.868949 0.916486
v 0.125940 2.925548 0.954188
v 0.125940 2.925548 0.954188
v 0.125940 2.925548 0.954188
v 0.125940 2.925548 0.954188
v 0.113466 2.940592 0.874323
v 0.113466 2.940592 0.874323
v 0.113466 2.940592 0.874323
v 0.113466 2.940592 0.874323
v 0.151735 2.865560 0.844458
v 0.151735 2.865560 0.844458
v 0.151735 2.865560 0.844458
v 0.151735 2.865560 0.844458
v -0.000783 0.954769 0.594890
v -0.000783 0.954769 0.594890
v -0.000785 0.950744 0.348256
v -0.000785 0.950744 0.348256
v -0.000490 1.553423 -0.951013
v -0.000490 1.553423 -0.951013
v -0.000453 1.629494 -0.944513
v -0.000453 1.629494 -0.944513
v 0.073321 1.747689 -0.948143
v 0.073321 1.747689 -0.948143
v 0.073321 1.747689 -0.948143
v -0.000396 1.744354 -1.002423
v -0.000396 1.744354 -1.002423
v -0.000516 1.500318 -1.064337
v -0.000516 1.500318 -1.064337
v -0.276798 0.065013 -0.657538
v -0.276798 0.065013 -0.657538
v -0.198507 0.064974 -0.612337
v -0.198507 0.064974 -0.612337
v -0.198507 0.064974 -0.521934
v -0.198507 0.064974 -0.521934
v -0.276798 0.065704 -0.497295
v -0.276798 0.065704 -0.497295
v -0.355089 0.065051 -0.521934
v -0.355089 0.065051 -0.521934
v -0.355089 0.065051 -0.612337
v -0.355089 0.065051 -0.612337
v -0.278698 0.290026 -0.737472
v -0.278698 0.290026 -0.737472
v -0.278698 0.290026 -0.737472
v -0.278698 0.290026 -0.737472
v -0.186382 0.289981 -0.705298
v -0.186382 0.289981 -0.705298
v -0.186382 0.289981 -0.705298
v -0.186382 0.289981 -0.705298
v -0.186382 0.289981 -0.598700
v -0.186382 0.289981 -0.598700
v -0.186382 0.289981 -0.598700
v -0.186382 0.289981 -0.598700
v -0.278698 0.290026 -0.524277
v -0.278698 0.290026 -0.524277
v -0.278698 0.290026 -0.524277
v -0.278698 0.290026 -0.524277
v -0.371014 0.290071 -0.577576
v -0.371014 0.290071 -0.577576
v -0.371014 0.290071 -0.577576
v -0.371014 0.290071 -0.577576
v -0.371014 0.290071 -0.684173
v -0.371014 0.290071 -0.684173
v -0.371014 0.290071 -0.684173
v -0.371014 0.290071 -0.684173
v -0.276605 0.458446 -0.790127
v -0.276605 0.458446 -0.790127
v -0.276605 0.458446 -0.790127
v -0.276605 0.458446 -0.790127
v -0.169027 0.458394 -0.728017
v -0.169027 0.458394 -0.728017
v -0.169027 0.458394 -0.728017
v -0.169027 0.458394 -0.728017
v -0.169027 0.458394 -0.603797
v -0.169027 0.458394 -0.603797
v -0.169027 0.458394 -0.603797
v -0.169027 0.458394 -0.603797
v -0.276605 0.458446 -0.541687
v -0.276605 0.458446 -0.541687
v -0.276605 0.458446 -0.541687
v -0.276605 0.458446 -0.541687
v -0.384183 0.458499 -0.603797
v -0.384183 0.458499 -0.603797
v -0.384183 0.458499 -0.603797
v -0.384183 0.458499 -0.603797
v -0.384183 0.458499 -0.728017
v -0.384183 0.458499 -0.728017
v -0.384183 0.458499 -0.728017
v -0.384183 0.458499 -0.728017
v -0.275885 0.810163 -0.806842
v -0.275885 0.810163 -0.806842
v -0.275885 0.810163 -0.806842
v -0.275885 0.810163 -0.806842
v -0.128320 0.795966 -0.745480
v -0.128320 0.795966 -0.745480
v -0.128320 0.795966 -0.745480
v -0.128320 0.795966 -0.745480
v -0.128333 0.768133 -0.576726
v -0.128333 0.768133 -0.576726
v -0.128333 0.768133 -0.576726
v -0.128333 0.768133 -0.576726
v -0.275913 0.752448 -0.444384
v -0.275913 0.752448 -0.444384
v -0.275913 0.752448 -0.444384
v -0.275913 0.752448 -0.444384
v -0.425121 0.768178 -0.551840
v -0.425121 0.768178 -0.551840
v -0.425121 0.768178 -0.551840
v -0.425121 0.768178 -0.551840
v -0.393999 0.796202 -0.721842
v -0.393999 0.796202 -0.721842
v -0.393999 0.796202 -0.721842
v -0.393999 0.796202 -0.721842
v -0.236353 1.269365 -0.918997
v -0.236353 1.269365 -0.918997
v -0.236353 1.269365 -0.918997
v -0.236353 1.269365 -0.918997
v -0.060918 1.188158 -0.737274
v -0.060918 1.188158 -0.737274
v -0.060918 1.188158 -0.737274
v -0.060918 1.188158 -0.737274
v -0.077209 1.126422 -0.584665
v -0.077209 1.126422 -0.584665
v -0.077209 1.126422 -0.584665
v -0.077209 1.126422 -0.584665
v -0.236390 1.193445 -0.451064
v -0.236390 1.193445 -0.451064
v -0.236390 1.193445 -0.451064
v -0.236390 1.193445 -0.451064
v -0.464708 1.305555 -0.584669
v -0.464708 1.305555 -0.584669
v -0.464708 1.305555 -0.584669
v -0.464708 1.305555 -0.584669
v -0.404730 1.345959 -0.790506
v -0.404730 1.345959 -0.790506
v -0.404730 1.345959 -0.790506
v -0.404730 1.345959 -0.790506
v -0.197751 0.087918 -0.539541
v -0.197751 0.087918 -0.539541
v -0.197751 0.087918 -0.539541
v -0.197751 0.087918 -0.539541
v -0.197751 0.087918 -0.630803
v -0.197751 0.087918 -0.630803
v -0.197751 0.087918 -0.630803
v -0.197751 0.087918 -0.630803
v -0.355822 0.087995 -0.630803
v -0.355822 0.087995 -0.630803
v -0.355822 0.087995 -0.630803
v -0.355822 0.087995 -0.630803
v -0.355822 0.087995 -0.539541
v -0.355822 0.087995 -0.539541
v -0.355822 0.087995 -0.539541
v -0.355822 0.087995 -0.539541
v -0.276787 0.087957 -0.676435
v -0.276787 0.087957 -0.676435
v -0.276787 0.087957 -0.676435
v -0.276787 0.087957 -0.676435
v -0.276787 0.086716 -0.506315
v -0.276787 0.086716 -0.506315
v -0.276787 0.086716 -0.506315
v -0.276787 0.086716 -0.506315
v -0.133647 0.593794 -0.772881
v -0.133647 0.593794 -0.772881
v -0.133647 0.593794 -0.772881
v -0.133647 0.593794 -0.772881
v -0.276531 0.608978 -0.853983
v -0.276531 0.608978 -0.853983
v -0.276531 0.608978 -0.853983
v -0.276531 0.608978 -0.853983
v -0.404987 0.593927 -0.772881
v -0.404987 0.593927 -0.772881
v -0.404987 0.593927 -0.772881
v -0.404987 0.593927 -0.772881
v -0.419445 0.563707 -0.610676
v -0.419445 0.563707 -0.610676
v -0.419445 0.563707 -0.610676
v -0.419445 0.563707 -0.610676
v -0.276561 0.548523 -0.529574
v -0.276561 0.548523 -0.529574
v -0.276561 0.548523 -0.529574
v -0.276561 0.548523 -0.529574
v -0.133662 0.563567 -0.610676
v -0.133662 0.563567 -0.610676
v -0.133662 0.563567 -0.610676
v -0.133662 0.563567 -0.610676
v -0.196586 1.432626 -0.974338
v -0.196586 1.432626 -0.974338
v -0.196586 1.432626 -0.974338
v -0.196586 1.432626 -0.974338
v -0.000616 1.296628 -0.909545
v -0.000616 1.296628 -0.909545
v -0.000616 1.296628 -0.909545
v -0.000674 1.177318 -0.493217
v -0.000674 1.177318 -0.493217
v -0.000674 1.177318 -0.493217
v -0.293333 1.353719 -0.385863
v -0.293333 1.353719 -0.385863
v -0.293333 1.353719 -0.385863
v -0.293333 1.353719 -0.385863
v -0.419451 1.571269 -0.466264
v -0.419451 1.571269 -0.466264
v -0.419451 1.571269 -0.466264
v -0.419451 1.571269 -0.466264
v -0.419451 1.571269 -0.466264
v -0.358654 1.559718 -0.775849
v -0.358654 1.559718 -0.775849
v -0.358654 1.559718 -0.775849
v -0.358654 1.559718 -0.775849
v -0.297861 1.739912 -0.432910
v -0.297861 1.739912 -0.432910
v -0.297861 1.739912 -0.432910
v -0.297861 1.739912 -0.432910
v -0.275300 1.718989 -0.766706
v -0.275300 1.718989 -0.766706
v -0.275300 1.718989 -0.766706
v -0.275300 1.718989 -0.766706
v -0.164798 1.843046 -0.391287
v -0.164798 1.843046 -0.391287
v -0.164798 1.843046 -0.391287
v -0.164798 1.843046 -0.391287
v -0.170578 1.841065 -0.675845
v -0.170578 1.841065 -0.675845
v -0.170578 1.841065 -0.675845
v -0.170578 1.841065 -0.675845
v -0.000298 1.945334 -0.400327
v -0.000298 1.945334 -0.400327
v -0.000315 1.910315 -0.657834
v -0.000315 1.910315 -0.657834
v -0.405597 1.036869 -0.758162
v -0.405597 1.036869 -0.758162
v -0.405597 1.036869 -0.758162
v -0.405597 1.036869 -0.758162
v -0.439227 1.003605 -0.566374
v -0.439227 1.003605 -0.566374
v -0.439227 1.003605 -0.566374
v -0.439227 1.003605 -0.566374
v -0.253498 0.959092 -0.443624
v -0.253498 0.959092 -0.443624
v -0.253498 0.959092 -0.443624
v -0.253498 0.959092 -0.443624
v -0.099384 0.926293 -0.570431
v -0.099384 0.926293 -0.570431
v -0.099384 0.926293 -0.570431
v -0.099384 0.926293 -0.570431
v -0.097253 0.941560 -0.734705
v -0.097253 0.941560 -0.734705
v -0.097253 0.941560 -0.734705
v -0.097253 0.941560 -0.734705
v -0.257357 1.033130 -0.865001
v -0.257357 1.033130 -0.865001
v -0.257357 1.033130 -0.865001
v -0.257357 1.033130 -0.865001
v -0.133836 1.840621 -0.160146
v -0.133836 1.840621 -0.160146
v -0.133836 1.840621 -0.160146
v -0.133836 1.840621 -0.160146
v -0.000312 1.915993 -0.126479
v -0.000312 1.915993 -0.126479
v -0.133122 1.828285 0.111300
v -0.133122 1.828285 0.111300
v -0.133122 1.828285 0.111300
v -0.133122 1.828285 0.111300
v -0.000326 1.887617 0.116745
v -0.000326 1.887617 0.116745
v -0.125747 1.844691 0.320823
v -0.125747 1.844691 0.320823
v -0.125747 1.844691 0.320823
v -0.125747 1.844691 0.320823
v -0.000313 1.913406 0.333246
v -0.000313 1.913406 0.333246
v -0.276797 0.067009 0.319953
v -0.276797 0.067009 0.319953
v -0.198506 0.066971 0.365154
v -0.198506 0.066971 0.365154
v -0.198506 0.066971 0.455557
v -0.198506 0.066971 0.455557
v -0.276797 0.067701 0.480196
v -0.276797 0.067701 0.480196
v -0.355088 0.067048 0.455557
v -0.355088 0.067048 0.455557
v -0.355088 0.067048 0.365154
v -0.355088 0.067048 0.365154
v -0.276700 0.265535 0.298299
v -0.276700 0.265535 0.298299
v -0.276700 0.265535 0.298299
v -0.276700 0.265535 0.298299
v -0.184384 0.265490 0.351598
v -0.184384 0.265490 0.351598
v -0.184384 0.265490 0.351598
v -0.184384 0.265490 0.351598
v -0.184384 0.265490 0.458195
v -0.184384 0.265490 0.458195
v -0.184384 0.265490 0.458195
v -0.184384 0.265490 0.458195
v -0.276700 0.265535 0.511493
v -0.276700 0.265535 0.511493
v -0.276700 0.265535 0.511493
v -0.276700 0.265535 0.511493
v -0.369016 0.265580 0.458195
v -0.369016 0.265580 0.458195
v -0.369016 0.265580 0.458195
v -0.369016 0.265580 0.458195
v -0.369016 0.265580 0.351598
v -0.369016 0.265580 0.351598
v -0.369016 0.265580 0.351598
v -0.369016 0.265580 0.351598
v -0.276584 0.453742 0.280228
v -0.276584 0.453742 0.280228
v -0.276584 0.453742 0.280228
v -0.276584 0.453742 0.280228
v -0.159541 0.453685 0.347803
v -0.159541 0.453685 0.347803
v -0.159541 0.453685 0.347803
v -0.159541 0.453685 0.347803
v -0.159541 0.453685 0.482952
v -0.159541 0.453685 0.482952
v -0.159541 0.453685 0.482952
v -0.159541 0.453685 0.482952
v -0.276584 0.453742 0.550527
v -0.276584 0.453742 0.550527
v -0.276584 0.453742 0.550527
v -0.276584 0.453742 0.550527
v -0.393627 0.453799 0.482952
v -0.393627 0.453799 0.482952
v -0.393627 0.453799 0.482952
v -0.393627 0.453799 0.482952
v -0.393627 0.453799 0.347803
v -0.393627 0.453799 0.347803
v -0.393627 0.453799 0.347803
v -0.393627 0.453799 0.347803
v -0.276473 0.728755 0.250876
v -0.276473 0.728755 0.250876
v -0.276473 0.728755 0.250876
v -0.276473 0.728755 0.250876
v -0.138367 0.728688 0.330611
v -0.138367 0.728688 0.330611
v -0.138367 0.728688 0.330611
v -0.138367 0.728688 0.330611
v -0.138367 0.728688 0.490082
v -0.138367 0.728688 0.490082
v -0.138367 0.728688 0.490082
v -0.138367 0.728688 0.490082
v -0.276472 0.730642 0.590570
v -0.276472 0.730642 0.590570
v -0.276472 0.730642 0.590570
v -0.276472 0.730642 0.590570
v -0.414578 0.728823 0.490082
v -0.414578 0.728823 0.490082
v -0.414578 0.728823 0.490082
v -0.414578 0.728823 0.490082
v -0.414578 0.728823 0.330611
v -0.414578 0.728823 0.330611
v -0.414578 0.728823 0.330611
v -0.414578 0.728823 0.330611
v -0.276338 1.003120 0.265092
v -0.276338 1.003120 0.265092
v -0.276338 1.003120 0.265092
v -0.276338 1.003120 0.265092
v -0.073940 0.968102 0.359887
v -0.073940 0.968102 0.359887
v -0.073940 0.968102 0.359887
v -0.073940 0.968102 0.359887
v -0.073940 0.968102 0.359887
v -0.100746 0.968764 0.511745
v -0.100746 0.968764 0.511745
v -0.100746 0.968764 0.511745
v -0.100746 0.968764 0.511745
v -0.100746 0.968764 0.511745
v -0.276359 0.961063 0.610313
v -0.276359 0.961063 0.610313
v -0.276359 0.961063 0.610313
v -0.276359 0.961063 0.610313
v -0.464700 1.077602 0.510551
v -0.464700 1.077602 0.510551
v -0.464700 1.077602 0.510551
v -0.464700 1.077602 0.510551
v -0.423510 1.059639 0.359887
v -0.423510 1.059639 0.359887
v -0.423510 1.059639 0.359887
v -0.423510 1.059639 0.359887
v -0.197750 0.089915 0.450528
v -0.197750 0.089915 0.450528
v -0.197750 0.089915 0.450528
v -0.197750 0.089915 0.450528
v -0.197750 0.089915 0.359265
v -0.197750 0.089915 0.359265
v -0.197750 0.089915 0.359265
v -0.197750 0.089915 0.359265
v -0.355821 0.089993 0.359265
v -0.355821 0.089993 0.359265
v -0.355821 0.089993 0.359265
v -0.355821 0.089993 0.359265
v -0.355821 0.089993 0.450528
v -0.355821 0.089993 0.450528
v -0.355821 0.089993 0.450528
v -0.355821 0.089993 0.450528
v -0.276786 0.089954 0.313633
v -0.276786 0.089954 0.313633
v -0.276786 0.089954 0.313633
v -0.276786 0.089954 0.313633
v -0.276786 0.088713 0.483753
v -0.276786 0.088713 0.483753
v -0.276786 0.088713 0.483753
v -0.276786 0.088713 0.483753
v -0.148516 0.535859 0.343817
v -0.148516 0.535859 0.343817
v -0.148516 0.535859 0.343817
v -0.148516 0.535859 0.343817
v -0.276567 0.535922 0.269886
v -0.276567 0.535922 0.269886
v -0.276567 0.535922 0.269886
v -0.276567 0.535922 0.269886
v -0.404619 0.535985 0.343817
v -0.404619 0.535985 0.343817
v -0.404619 0.535985 0.343817
v -0.404619 0.535985 0.343817
v -0.404619 0.535985 0.491678
v -0.404619 0.535985 0.491678
v -0.404619 0.535985 0.491678
v -0.404619 0.535985 0.491678
v -0.276567 0.535922 0.565608
v -0.276567 0.535922 0.565608
v -0.276567 0.535922 0.565608
v -0.276567 0.535922 0.565608
v -0.148516 0.535859 0.491678
v -0.148516 0.535859 0.491678
v -0.148516 0.535859 0.491678
v -0.148516 0.535859 0.491678
v -0.198650 1.233861 0.169604
v -0.198650 1.233861 0.169604
v -0.198650 1.233861 0.169604
v -0.198650 1.233861 0.169604
v -0.000744 1.034945 0.260511
v -0.000744 1.034945 0.260511
v -0.000744 1.034945 0.260511
v -0.000720 1.083169 0.850480
v -0.000720 1.083169 0.850480
v -0.000720 1.083169 0.850480
v -0.173607 1.220642 0.793118
v -0.173607 1.220642 0.793118
v -0.173607 1.220642 0.793118
v -0.173607 1.220642 0.793118
v -0.428703 1.385931 0.596440
v -0.428703 1.385931 0.596440
v -0.428703 1.385931 0.596440
v -0.428703 1.385931 0.596440
v -0.404141 1.474393 0.310123
v -0.404141 1.474393 0.310123
v -0.404141 1.474393 0.310123
v -0.404141 1.474393 0.310123
v -0.404141 1.474393 0.310123
v -0.275932 1.655101 0.644673
v -0.275932 1.655101 0.644673
v -0.275932 1.655101 0.644673
v -0.275932 1.655101 0.644673
v -0.275932 1.655101 0.644673
v -0.264145 1.708437 0.320419
v -0.264145 1.708437 0.320419
v -0.264145 1.708437 0.320419
v -0.264145 1.708437 0.320419
v -0.135146 1.808550 0.578665
v -0.135146 1.808550 0.578665
v -0.135146 1.808550 0.578665
v -0.135146 1.808550 0.578665
v -0.000314 1.912791 0.574400
v -0.000314 1.912791 0.574400
v -0.203911 1.462634 0.833922
v -0.203911 1.462634 0.833922
v -0.203911 1.462634 0.833922
v -0.203911 1.462634 0.833922
v -0.236535 1.682497 -0.199313
v -0.236535 1.682497 -0.199313
v -0.236535 1.682497 -0.199313
v -0.236535 1.682497 -0.199313
v -0.262299 1.709507 0.083227
v -0.262299 1.709507 0.083227
v -0.262299 1.709507 0.083227
v -0.262299 1.709507 0.083227
v -0.300867 1.397953 -0.229595
v -0.300867 1.397953 -0.229595
v -0.300867 1.397953 -0.229595
v -0.300867 1.397953 -0.229595
v -0.240286 1.223344 0.002985
v -0.240286 1.223344 0.002985
v -0.240286 1.223344 0.002985
v -0.240286 1.223344 0.002985
v -0.354001 1.409127 0.049981
v -0.354001 1.409127 0.049981
v -0.354001 1.409127 0.049981
v -0.354001 1.409127 0.049981
v -0.230869 1.212613 -0.239787
v -0.230869 1.212613 -0.239787
v -0.230869 1.212613 -0.239787
v -0.230869 1.212613 -0.239787
v -0.000755 1.012077 -0.032043
v -0.000755 1.012077 -0.032043
v -0.000743 1.036977 -0.267606
v -0.000743 1.036977 -0.267606
v -0.202859 1.679343 -0.900831
v -0.202859 1.679343 -0.900831
v -0.202859 1.679343 -0.900831
v -0.202859 1.679343 -0.900831
v -0.047894 1.770199 -0.854095
v -0.047894 1.770199 -0.854095
v -0.047894 1.770199 -0.854095
v -0.047894 1.770199 -0.854095
v -0.047894 1.770199 -0.854095
v -0.000356 1.826505 -0.827291
v -0.000356 1.826505 -0.827291
v -0.125468 1.861915 0.665370
v -0.125468 1.861915 0.665370
v -0.125468 1.861915 0.665370
v -0.125468 1.861915 0.665370
v -0.000590 1.349783 1.012290
v -0.000590 1.349783 1.012290
v -0.221332 1.760720 0.757967
v -0.221332 1.760720 0.757967
v -0.221332 1.760720 0.757967
v -0.221332 1.760720 0.757967
v -0.122099 1.972389 0.720274
v -0.122099 1.972389 0.720274
v -0.122099 1.972389 0.720274
v -0.122099 1.972389 0.720274
v -0.199130 1.948388 0.850452
v -0.199130 1.948388 0.850452
v -0.199130 1.948388 0.850452
v -0.199130 1.948388 0.850452
v -0.000303 1.933991 0.621578
v -0.000303 1.933991 0.621578
v -0.000261 2.020863 0.676049
v -0.000261 2.020863 0.676049
v -0.147509 1.648166 0.898852
v -0.147509 1.648166 0.898852
v -0.147509 1.648166 0.898852
v -0.147509 1.648166 0.898852
v -0.134593 1.928237 0.988554
v -0.134593 1.928237 0.988554
v -0.134593 1.928237 0.988554
v -0.134593 1.928237 0.988554
v -0.000452 1.631050 1.062855
v -0.000452 1.631050 1.062855
v -0.000294 1.952651 1.060685
v -0.000294 1.952651 1.060685
v -0.106479 2.348029 0.748922
v -0.106479 2.348029 0.748922
v -0.106479 2.348029 0.748922
v -0.106479 2.348029 0.748922
v -0.190653 2.325957 0.867666
v -0.190653 2.325957 0.867666
v -0.190653 2.325957 0.867666
v -0.190653 2.325957 0.867666
v -0.000094 2.360750 0.696601
v -0.000094 2.360750 0.696601
v -0.142623 2.307425 0.998297
v -0.142623 2.307425 0.998297
v -0.142623 2.307425 0.998297
v -0.142623 2.307425 0.998297
v -0.000133 2.282061 1.061398
v -0.000133 2.282061 1.061398
v -0.000204 2.135711 1.059621
v -0.000204 2.135711 1.059621
v -0.139617 2.112400 0.990734
v -0.139617 2.112400 0.990734
v -0.139617 2.112400 0.990734
v -0.139617 2.112400 0.990734
v -0.109888 2.154558 0.735083
v -0.109888 2.154558 0.735083
v -0.109888 2.154558 0.735083
v -0.109888 2.154558 0.735083
v -0.000173 2.200856 0.692279
v -0.000173 2.200856 0.692279
v -0.195871 2.131642 0.858841
v -0.195871 2.131642 0.858841
v -0.195871 2.131642 0.858841
v -0.195871 2.131642 0.858841
v -0.139718 2.543705 0.744788
v -0.139718 2.543705 0.744788
v -0.139718 2.543705 0.744788
v -0.139718 2.543705 0.744788
v -0.199215 2.520786 0.888243
v -0.199215 2.520786 0.888243
v -0.199215 2.520786 0.888243
v -0.199215 2.520786 0.888243
v 0.000003 2.560219 0.691609
v 0.000003 2.560219 0.691609
v -0.148031 2.491149 1.028552
v -0.148031 2.491149 1.028552
v -0.148031 2.491149 1.028552
v -0.148031 2.491149 1.028552
v -0.148031 2.491149 1.028552
v -0.000100 2.348181 1.078835
v -0.000100 2.348181 1.078835
v -0.151831 2.474379 1.148713
v -0.151831 2.474379 1.148713
v -0.151831 2.474379 1.148713
v -0.151831 2.474379 1.148713
v -0.000074 2.401250 1.145817
v -0.000074 2.401250 1.145817
v -0.117698 2.763104 0.818907
v -0.117698 2.763104 0.818907
v -0.117698 2.763104 0.818907
v -0.117698 2.763104 0.818907
v -0.156424 2.769215 0.908876
v -0.156424 2.769215 0.908876
v -0.156424 2.769215 0.908876
v -0.156424 2.769215 0.908876
v 0.000088 2.733028 0.724816
v 0.000088 2.733028 0.724816
v -0.169313 2.677536 1.082767
v -0.169313 2.677536 1.082767
v -0.169313 2.677536 1.082767
v -0.169313 2.677536 1.082767
v -0.151832 2.670530 1.182400
v -0.151832 2.670530 1.182400
v -0.151832 2.670530 1.182400
v -0.151832 2.670530 1.182400
v -0.086814 2.830726 0.852051
v -0.086814 2.830726 0.852051
v -0.086814 2.830726 0.852051
v -0.086814 2.830726 0.852051
v 0.000138 2.835210 0.822506
v 0.000138 2.835210 0.822506
v -0.089642 2.839260 0.948194
v -0.089642 2.839260 0.948194
v -0.089642 2.839260 0.948194
v -0.089642 2.839260 0.948194
v 0.000154 2.867597 0.943062
v 0.000154 2.867597 0.943062
v -0.118892 2.801140 1.057030
v -0.118892 2.801140 1.057030
v -0.118892 2.801140 1.057030
v -0.118892 2.801140 1.057030
v -0.089552 2.774162 1.159789
v -0.089552 2.774162 1.159789
v -0.089552 2.774162 1.159789
v -0.089552 2.774162 1.159789
v 0.000152 2.863649 1.047378
v 0.000152 2.863649 1.047378
v 0.000131 2.819398 1.150012
v 0.000131 2.819398 1.150012
v -0.126756 2.671893 1.236195
v -0.126756 2.671893 1.236195
v -0.126756 2.671893 1.236195
v -0.067498 2.684699 1.254040
v -0.067498 2.684699 1.254040
v -0.067498 2.684699 1.254040
v -0.067498 2.684699 1.254040
v 0.000089 2.734599 1.246315
v 0.000089 2.734599 1.246315
v -0.181627 2.575818 1.066124
v -0.181627 2.575818 1.066124
v -0.181627 2.575818 1.066124
v -0.181627 2.575818 1.066124
v -0.194619 2.608512 0.898216
v -0.194619 2.608512 0.898216
v -0.194619 2.608512 0.898216
v -0.194619 2.608512 0.898216
v -0.134694 2.630107 0.761392
v -0.134694 2.630107 0.761392
v -0.134694 2.630107 0.761392
v -0.134694 2.630107 0.761392
v -0.155850 2.566526 1.189516
v -0.155850 2.566526 1.189516
v -0.155850 2.566526 1.189516
v -0.155850 2.566526 1.189516
v 0.000046 2.646624 0.708213
v 0.000046 2.646624 0.708213
v -0.070681 2.597343 1.306520
v -0.070681 2.597343 1.306520
v 0.000032 2.618154 1.283916
v -0.000064 2.422160 1.244828
v -0.000064 2.422160 1.244828
v -0.123911 2.574262 1.346105
v -0.123911 2.574262 1.346105
v -0.123911 2.574262 1.346105
v -0.123911 2.574262 1.346105
v -0.132849 2.482404 1.248392
v -0.132849 2.482404 1.248392
v -0.132849 2.482404 1.248392
v -0.132849 2.482404 1.248392
v -0.000049 2.451895 1.299893
v -0.079646 2.492761 1.309370
v -0.079646 2.492761 1.309370
v -0.093444 2.529839 1.314692
v -0.190017 2.706238 0.917394
v -0.190017 2.706238 0.917394
v -0.190017 2.706238 0.917394
v -0.190017 2.706238 0.917394
v -0.190017 2.706238 0.917394
v -0.129671 2.716510 0.777995
v -0.129671 2.716510 0.777995
v -0.129671 2.716510 0.777995
v -0.129671 2.716510 0.777995
v -0.129671 2.716510 0.777995
v -0.068849 2.803172 0.819315
v -0.068849 2.803172 0.819315
v -0.068849 2.803172 0.819315
v -0.068849 2.803172 0.819315
v -0.079109 2.835953 0.961598
v -0.079109 2.835953 0.961598
v -0.079109 2.835953 0.961598
v -0.079109 2.835953 0.961598
v -0.079109 2.835953 0.961598
v -0.175493 2.970636 0.922195
v -0.175493 2.970636 0.922195
v -0.175493 2.970636 0.922195
v -0.162341 2.971109 0.905310
v -0.162341 2.971109 0.905310
v -0.162341 2.971109 0.905310
v -0.154856 2.984922 0.914130
v -0.154856 2.984922 0.914130
v -0.154856 2.984922 0.914130
v -0.153977 3.001305 0.932617
v -0.153977 3.001305 0.932617
v -0.153977 3.001305 0.932617
v -0.206400 2.869151 0.916486
v -0.206400 2.869151 0.916486
v -0.206400 2.869151 0.916486
v -0.206400 2.869151 0.916486
v -0.125575 2.925672 0.954188
v -0.125575 2.925672 0.954188
v -0.125575 2.925672 0.954188
v -0.125575 2.925672 0.954188
v -0.113087 2.940703 0.874323
v -0.113087 2.940703 0.874323
v -0.113087 2.940703 0.874323
v -0.113087 2.940703 0.874323
v -0.151429 2.865709 0.844458
v -0.151429 2.865709 0.844458
v -0.151429 2.865709 0.844458
v -0.151429 2.865709 0.844458
v -0.000783 0.954769 0.594890
v -0.000783 0.954769 0.594890
v -0.000785 0.950744 0.348256
v -0.000785 0.950744 0.348256
v -0.000490 1.553423 -0.951013
v -0.000490 1.553423 -0.951013
v -0.000453 1.629494 -0.944513
v -0.000453 1.629494 -0.944513
v -0.074111 1.747761 -0.948143
v -0.074111 1.747761 -0.948143
v -0.074111 1.747761 -0.948143
v -0.000396 1.744354 -1.002423
v -0.000396 1.744354 -1.002423
v -0.000516 1.500318 -1.064337
v -0.000516 1.500318 -1.064337
v 0.352651 0.066701 0.410355
v 0.235215 0.067104 0.467876
v 0.196070 0.066778 0.410355
v 0.235215 0.066759 0.342553
v 0.313506 0.066720 0.342553
v 0.313506 0.067066 0.467876
vn -0.9985 -0.0552 -0.0000
vn -0.9948 -0.1015 -0.0000
vn 0.9971 -0.0759 -0.0000
vn -0.3945 -0.3001 -0.8685
vn -0.3947 -0.3001 -0.8684
vn -0.3944 -0.3001 -0.8685
vn -0.5253 0.1477 0.8380
vn -0.5252 0.1477 0.8381
vn -0.5254 0.1477 0.8379
vn 0.4830 -0.2578 -0.8368
vn 0.4478 0.1034 0.8882
vn -0.4475 0.1565 -0.8805
vn 0.9969 -0.0789 -0.0000
vn -0.5639 0.0232 0.8255
vn -0.5640 0.0233 0.8255
vn -0.4161 -0.2210 -0.8820
vn -0.4160 -0.2209 -0.8821
vn 0.4832 -0.2562 -0.8372
vn 0.4978 0.0948 0.8621
vn 0.9692 -0.0598 -0.2391
vn 0.9692 -0.0598 -0.2390
vn 0.9691 -0.0598 -0.2391
vn 0.5633 0.2101 -0.7991
vn 0.5633 0.2102 -0.7991
vn 0.5406 -0.2862 0.7911
vn 0.5407 -0.2862 0.7911
vn -0.9997 -0.0245 -0.0044
vn -0.9997 -0.0243 -0.0046
vn -0.9997 -0.0246 -0.0044
vn -0.9997 -0.0248 -0.0042
vn 0.9907 0.0465 -0.1276
vn 0.9907 0.0464 -0.1276
vn -0.5919 -0.2331 0.7716
vn -0.5918 -0.2332 0.7716
vn -0.5920 -0.2330 0.7715
vn -0.6910 -0.6943 -0.2013
vn -0.6911 -0.6942 -0.2013
vn -0.6910 -0.6942 -0.2013
vn -0.6355 -0.0184 0.7719
vn -0.6355 -0.0183 0.7718
vn -0.6357 -0.0182 0.7718
vn -0.6356 -0.0183 0.7718
vn -0.6254 -0.1630 -0.7631
vn -0.6254 -0.1629 -0.7631
vn -0.6255 -0.1630 -0.7630
vn 0.6097 -0.1006 -0.7862
vn 0.5172 0.0324 0.8552
vn 0.5171 0.0325 0.8553
vn -0.9914 -0.1279 0.0263
vn 0.2995 0.4905 0.8184
vn 0.2994 0.4907 0.8183
vn 0.2995 0.4905 0.8183
vn 0.2996 0.4903 0.8184
vn 0.4068 -0.5809 -0.7051
vn -0.2990 0.4908 0.8183
vn -0.2990 0.4906 0.8185
vn -0.2990 0.4908 0.8184
vn -0.2991 0.4910 0.8182
vn -0.4073 -0.5805 -0.7051
vn 0.4265 -0.9045 -0.0000
vn 0.7180 -0.6960 0.0021
vn 0.9995 -0.0329 -0.0000
vn -0.9995 -0.0319 -0.0000
vn -0.9995 -0.0320 -0.0000
vn -0.4986 -0.1126 0.8595
vn -0.4983 -0.1130 0.8596
vn -0.4984 -0.1129 0.8596
vn -0.4984 -0.1128 0.8596
vn 0.9673 -0.2424 -0.0743
vn 0.9674 -0.2422 -0.0742
vn 0.9673 -0.2423 -0.0743
vn 0.9673 -0.2425 -0.0744
vn -0.9574 -0.2873 -0.0301
vn -0.9574 -0.2871 -0.0303
vn 0.4983 -0.1134 0.8596
vn 0.4980 -0.1129 0.8598
vn 0.4707 -0.3437 -0.8126
vn 0.4709 -0.3436 -0.8126
vn 0.4710 -0.3435 -0.8125
vn 0.4709 -0.3435 -0.8125
vn -0.4454 -0.3655 -0.8173
vn -0.4455 -0.3656 -0.8172
vn 0.7197 0.2664 -0.6411
vn 0.7197 0.2663 -0.6412
vn 0.7197 0.2666 -0.6411
vn 0.9486 0.2375 -0.2091
vn 0.9486 0.2377 -0.2089
vn 0.9486 0.2376 -0.2090
vn -0.1016 -0.5988 0.7945
vn -0.1016 -0.5988 0.7944
vn -0.1018 -0.5986 0.7946
vn -0.1015 -0.5988 0.7945
vn -0.1069 -0.6611 -0.7427
vn -0.1069 -0.6612 -0.7425
vn -0.1069 -0.6611 -0.7426
vn -0.1068 -0.6610 -0.7428
vn 0.6776 0.0747 -0.7316
vn 0.6776 0.0745 -0.7316
vn 0.6776 0.0748 -0.7316
vn 0.6834 -0.3053 0.6632
vn 0.6833 -0.3052 0.6633
vn 0.6834 -0.3053 0.6631
vn 0.8328 0.5369 -0.1350
vn 0.8329 0.5367 -0.1351
vn 0.8328 0.5368 -0.1350
vn 0.6742 0.7372 -0.0456
vn 0.6741 0.7372 -0.0456
vn 0.6741 0.7373 -0.0455
vn 0.4550 0.8887 -0.0558
vn 0.4549 0.8888 -0.0557
vn 0.4551 0.8887 -0.0559
vn -0.9813 -0.1917 -0.0188
vn -0.9813 -0.1918 -0.0186
vn -0.9812 -0.1920 -0.0185
vn 0.5617 0.0357 0.8266
vn 0.5616 0.0358 0.8266
vn 0.5615 0.0359 0.8267
vn 0.5732 -0.1559 -0.8044
vn 0.5733 -0.1559 -0.8044
vn -0.4767 -0.1744 -0.8616
vn -0.4767 -0.1743 -0.8616
vn -0.4768 -0.1746 -0.8615
vn -0.6446 -0.1048 0.7573
vn -0.6446 -0.1047 0.7573
vn -0.6447 -0.1047 0.7572
vn 0.9793 -0.0744 -0.1883
vn 0.9794 -0.0739 -0.1877
vn 0.9796 -0.0735 -0.1872
vn 0.9795 -0.0739 -0.1876
vn 0.5163 0.8521 0.0853
vn 0.5162 0.8522 0.0852
vn 0.4593 0.8854 0.0707
vn 0.4593 0.8855 0.0707
vn 0.4392 0.8947 -0.0811
vn -0.9972 -0.0749 -0.0000
vn -0.9916 -0.1297 -0.0000
vn -0.4986 -0.0752 -0.8636
vn -0.4488 -0.1059 0.8873
vn -0.4489 -0.1058 0.8873
vn 0.4985 -0.0757 -0.8636
vn 0.4488 -0.1063 0.8873
vn 0.4487 -0.1063 0.8873
vn -0.4982 -0.0848 -0.8629
vn 0.9914 -0.1309 -0.0000
vn -0.4922 -0.1765 0.8524
vn -0.4983 -0.0826 -0.8631
vn 0.4982 -0.0832 -0.8630
vn 0.4920 -0.1771 0.8524
vn 0.9889 -0.0776 -0.1269
vn 0.9889 -0.0776 -0.1267
vn 0.9888 -0.0777 -0.1271
vn 0.4981 -0.0853 -0.8629
vn 0.5466 -0.0648 0.8349
vn -0.9987 -0.0516 -0.0000
vn 0.9986 -0.0526 -0.0000
vn -0.5467 -0.0643 0.8349
vn -0.5467 -0.0642 0.8349
vn 0.4454 -0.8001 0.4018
vn -0.5338 -0.1160 0.8376
vn -0.5337 -0.1160 0.8377
vn -0.5338 -0.1160 0.8377
vn -0.4575 0.0182 -0.8890
vn 0.5133 0.0536 -0.8565
vn 0.5134 0.0536 -0.8565
vn 0.5464 -0.1054 0.8308
vn 0.5464 -0.1054 0.8309
vn -0.9730 -0.2150 0.0842
vn -0.9730 -0.2149 0.0841
vn -0.9729 -0.2151 0.0844
vn 0.3450 0.0252 0.9382
vn 0.3450 0.0255 0.9383
vn 0.3451 0.0252 0.9382
vn 0.4862 -0.2322 -0.8424
vn -0.3450 0.0259 0.9382
vn -0.3449 0.0256 0.9383
vn -0.3450 0.0256 0.9383
vn -0.3451 0.0259 0.9382
vn -0.4865 -0.2318 -0.8424
vn 0.6935 -0.7205 0.0012
vn 0.5714 -0.8207 -0.0000
vn -0.4939 -0.1569 0.8553
vn 0.9911 -0.1330 -0.0000
vn -0.9912 -0.1326 -0.0000
vn 0.4937 -0.1571 0.8553
vn 0.4970 -0.1084 -0.8609
vn 0.4970 -0.1085 -0.8609
vn -0.4971 -0.1082 -0.8609
vn 0.3708 0.7783 -0.5067
vn 0.3708 0.7783 -0.5066
vn 0.9875 0.0814 -0.1353
vn 0.9874 0.0813 -0.1354
vn 0.9875 0.0815 -0.1351
vn 0.2067 -0.7552 0.6221
vn 0.2070 -0.7552 0.6220
vn 0.2070 -0.7551 0.6220
vn 0.2068 -0.7551 0.6221
vn -0.0521 -0.5652 -0.8233
vn -0.0521 -0.5653 -0.8233
vn -0.0522 -0.5654 -0.8232
vn -0.0521 -0.5651 -0.8234
vn 0.6029 -0.0883 -0.7929
vn 0.6029 -0.0884 -0.7929
vn 0.6026 -0.0888 -0.7931
vn 0.6294 -0.2019 0.7504
vn 0.6293 -0.2018 0.7505
vn 0.8663 0.4954 0.0637
vn 0.8663 0.4955 0.0637
vn 0.8662 0.4955 0.0638
vn 0.7090 0.7004 0.0820
vn 0.7090 0.7005 0.0820
vn 0.5547 0.8305 0.0508
vn 0.5546 0.8305 0.0508
vn 0.7236 0.0637 0.6872
vn 0.7235 0.0638 0.6874
vn 0.7236 0.0637 0.6873
vn 0.7574 0.6114 0.2291
vn 0.7574 0.6115 0.2290
vn 0.7575 0.6113 0.2292
vn 0.7601 0.6478 -0.0515
vn 0.7602 0.6476 -0.0514
vn 0.7600 0.6479 -0.0516
vn 0.6897 0.7240 -0.0163
vn 0.6896 0.7240 -0.0164
vn 0.6896 0.7240 -0.0163
vn 0.8425 0.2801 0.4601
vn 0.8425 0.2803 0.4600
vn 0.8425 0.2800 0.4602
vn 0.9510 0.2692 -0.1519
vn 0.9511 0.2692 -0.1518
vn 0.9510 0.2692 -0.1518
vn 0.9036 0.4026 -0.1465
vn 0.9036 0.4025 -0.1464
vn 0.9035 0.4027 -0.1466
vn 0.8976 -0.4316 -0.0895
vn 0.8976 -0.4317 -0.0895
vn 0.8977 -0.4315 -0.0894
vn 0.7757 -0.6239 0.0951
vn 0.7757 -0.6239 0.0952
vn 0.7757 -0.6238 0.0953
vn 0.9013 -0.4264 0.0770
vn 0.9013 -0.4263 0.0771
vn 0.9012 -0.4265 0.0768
vn 0.6375 -0.7696 -0.0354
vn 0.6375 -0.7696 -0.0353
vn 0.6375 -0.7697 -0.0354
vn 0.6866 -0.7180 0.1145
vn 0.6865 -0.7181 0.1146
vn 0.5778 -0.6948 -0.4282
vn 0.5776 -0.6948 -0.4286
vn 0.5778 -0.6948 -0.4283
vn 0.3617 0.7978 -0.4824
vn 0.3617 0.7977 -0.4825
vn 0.3615 0.7979 -0.4823
vn 0.6533 -0.3027 0.6940
vn 0.6532 -0.3027 0.6941
vn 0.6533 -0.3027 0.6939
vn 0.6534 -0.3028 0.6938
vn 0.7794 0.5876 -0.2174
vn 0.8281 0.3033 -0.4715
vn 0.5681 0.7356 -0.3689
vn 0.5682 0.7356 -0.3689
vn 0.4826 0.4306 -0.7627
vn 0.8840 0.0518 0.4646
vn 0.8840 0.0517 0.4646
vn 0.9039 -0.1041 0.4150
vn 0.9038 -0.1041 0.4150
vn 0.9039 -0.1041 0.4149
vn 0.6509 -0.1065 0.7517
vn 0.6507 -0.1066 0.7518
vn 0.6508 -0.1066 0.7518
vn 0.6510 -0.1064 0.7516
vn 0.7284 -0.0808 0.6804
vn 0.7284 -0.0807 0.6803
vn 0.4240 -0.0289 0.9052
vn 0.4301 -0.0350 0.9021
vn 0.4233 -0.0281 0.9056
vn 0.4158 -0.0206 0.9092
vn 0.4140 0.0504 -0.9089
vn 0.8221 0.0507 -0.5672
vn 0.8220 0.0506 -0.5672
vn 0.8220 0.0506 -0.5673
vn 0.9295 -0.0105 0.3687
vn 0.9279 -0.0079 0.3727
vn 0.9301 -0.0115 0.3672
vn 0.9314 -0.0142 0.3636
vn 0.9135 -0.0169 0.4065
vn 0.9135 -0.0170 0.4064
vn 0.9136 -0.0170 0.4063
vn 0.9136 -0.0170 0.4064
vn 0.8453 0.0686 -0.5298
vn 0.3831 0.0914 -0.9192
vn 0.3832 0.0914 -0.9191
vn 0.4569 -0.0094 0.8895
vn 0.4567 -0.0093 0.8896
vn 0.4566 -0.0091 0.8896
vn 0.4567 -0.0093 0.8895
vn 0.9355 -0.0742 0.3454
vn 0.9183 -0.0409 0.3937
vn 0.9466 -0.0927 0.3087
vn 0.9625 -0.1282 0.2393
vn 0.8681 -0.0756 -0.4905
vn 0.8580 -0.0859 -0.5064
vn 0.8688 -0.0740 -0.4896
vn 0.8752 -0.0643 -0.4795
vn 0.4278 -0.1631 0.8890
vn 0.4670 -0.1964 0.8622
vn 0.4500 -0.1811 0.8745
vn 0.3914 -0.1324 0.9107
vn 0.3880 -0.0542 -0.9201
vn 0.5800 -0.8146 0.0070
vn 0.6626 -0.7081 0.2441
vn 0.5755 -0.7735 0.2656
vn 0.5508 -0.8318 0.0690
vn 0.9904 0.0713 0.1186
vn 0.9906 0.0600 0.1228
vn 0.9929 0.0546 0.1056
vn 0.9925 0.0662 0.1027
vn 0.9150 0.1206 -0.3851
vn 0.9165 0.1281 -0.3789
vn 0.9154 0.1228 -0.3833
vn 0.9140 0.1160 -0.3888
vn 0.9801 0.0630 0.1881
vn 0.9816 0.0644 0.1797
vn 0.9765 0.0725 0.2028
vn 0.9750 0.0726 0.2099
vn 0.3866 0.1846 -0.9036
vn 0.3312 0.6260 -0.7060
vn 0.3312 0.6259 -0.7060
vn 0.3311 0.6259 -0.7061
vn 0.8280 0.4815 0.2875
vn 0.8571 0.4360 0.2746
vn 0.8427 0.4693 0.2640
vn 0.8121 0.5066 0.2897
vn 0.8589 0.5121 0.0109
vn 0.8375 0.5464 -0.0004
vn 0.8332 0.5388 0.1244
vn 0.8592 0.5069 0.0694
vn 0.4825 0.0843 0.8718
vn 0.4824 0.0844 0.8719
vn 0.4823 0.0843 0.8719
vn 0.4045 0.8838 -0.2352
vn 0.4035 0.8840 -0.2359
vn 0.4058 0.8834 -0.2343
vn 0.4059 0.8834 -0.2343
vn 0.4250 0.9013 0.0833
vn 0.4449 0.8945 0.0445
vn 0.4157 0.9046 0.0940
vn 0.4155 0.9044 0.0968
vn 0.4073 0.8448 0.3469
vn 0.4375 0.8421 0.3153
vn 0.3995 0.8447 0.3561
vn 0.3614 0.8471 0.3896
vn 0.3292 0.6819 0.6532
vn 0.3851 0.5922 0.7078
vn 0.3419 0.6706 0.6583
vn 0.2946 0.7608 0.5782
vn 0.5883 0.5686 0.5750
vn 0.5935 0.6076 0.5278
vn 0.5444 0.6616 0.5156
vn 0.6130 0.4016 0.6804
vn 0.3746 0.1852 -0.9085
vn 0.9721 -0.2161 0.0915
vn 0.9649 -0.2274 0.1313
vn 0.9656 -0.2586 0.0262
vn 0.9692 -0.2447 -0.0280
vn 0.9215 0.1092 -0.3728
vn 0.9185 0.0983 -0.3830
vn 0.9202 0.1054 -0.3769
vn 0.9233 0.1170 -0.3657
vn 0.9591 -0.2456 0.1404
vn 0.9735 -0.2037 0.1036
vn 0.9686 -0.1621 0.1886
vn 0.9481 -0.2037 0.2440
vn 0.0301 0.3855 0.9222
vn 0.0533 0.3849 0.9214
vn -0.0033 0.4629 0.8864
vn 0.1597 0.7548 0.6362
vn 0.9482 0.1790 0.2625
vn 0.8548 0.3757 0.3579
vn 0.9532 0.1598 0.2566
vn 0.9738 0.0647 0.2180
vn 0.2052 0.5824 0.7866
vn 0.4125 0.4328 0.8016
vn 0.0512 0.8244 0.5637
vn -0.1594 0.8160 0.5557
vn 0.9682 -0.1355 0.2101
vn 0.9944 -0.0115 0.1055
vn 0.9758 -0.1107 0.1887
vn 0.9378 -0.2388 0.2522
vn 0.4100 -0.8948 0.1767
vn 0.4275 -0.8917 0.1489
vn 0.4178 -0.8937 0.1633
vn 0.3987 -0.8966 0.1929
vn 0.3498 -0.8091 0.4722
vn 0.3858 -0.8241 0.4148
vn 0.3682 -0.8215 0.4354
vn 0.3227 -0.8063 0.4957
vn 0.5372 -0.5404 0.6476
vn 0.3133 -0.6392 0.7023
vn 0.3683 -0.5667 0.7370
vn 0.4792 -0.4551 0.7505
vn 0.8233 0.4509 -0.3447
vn 0.8280 0.4314 -0.3582
vn 0.8260 0.4397 -0.3528
vn 0.8219 0.4553 -0.3423
vn 0.4846 0.5962 -0.6401
vn 0.4848 0.5962 -0.6400
vn 0.4845 0.5962 -0.6402
vn -0.7078 0.7022 -0.0768
vn -0.7038 0.7055 -0.0838
vn -0.7044 0.7049 -0.0835
vn -0.7090 0.7007 -0.0791
vn 0.7314 0.4329 0.5269
vn 0.7278 0.4053 0.5532
vn 0.7292 0.4144 0.5446
vn 0.7316 0.4347 0.5251
vn 0.6180 0.6142 -0.4908
vn 0.6179 0.6142 -0.4909
vn 0.6179 0.6142 -0.4908
vn 0.2308 0.4858 -0.8430
vn 0.2306 0.4859 -0.8431
vn -0.8648 0.4929 0.0954
vn -0.8649 0.4928 0.0955
vn -0.8648 0.4931 0.0952
vn 0.7614 0.2632 -0.5925
vn 0.7617 0.2634 -0.5920
vn 0.7616 0.2633 -0.5921
vn 0.7616 0.2633 -0.5922
vn 0.8390 -0.2716 -0.4714
vn 0.8433 -0.2655 -0.4672
vn 0.8398 -0.2716 -0.4701
vn 0.8344 -0.2766 -0.4767
vn -0.9527 0.2892 0.0937
vn -0.9526 0.2894 0.0937
vn -0.9526 0.2893 0.0935
vn -0.9527 0.2891 0.0938
vn -0.2606 0.2816 -0.9235
vn -0.2607 0.2816 -0.9234
vn -0.2604 0.2816 -0.9235
vn 0.3056 -0.2098 0.9287
vn 0.3033 -0.1956 0.9326
vn 0.3055 -0.2088 0.9290
vn 0.3083 -0.2246 0.9244
vn 0.1771 -0.9842 -0.0004
vn 0.2701 -0.6948 -0.6666
vn -0.0787 0.0643 -0.9948
vn -0.0788 0.0642 -0.9948
vn -0.0786 0.0645 -0.9948
vn 0.1027 0.3872 -0.9163
vn 0.1028 0.3870 -0.9163
vn 0.1027 0.3873 -0.9162
vn 0.7729 -0.4693 0.4272
vn 0.7728 -0.4694 0.4273
vn 0.7730 -0.4692 0.4270
vn 0.5749 0.2009 -0.7931
vn 0.4380 0.8515 -0.2883
vn 0.4379 0.8515 -0.2885
vn 0.4378 0.8515 -0.2884
vn 0.4377 0.8516 -0.2885
vn 0.9984 -0.0562 -0.0000
vn 0.9947 -0.1025 -0.0000
vn -0.9972 -0.0750 -0.0000
vn 0.3942 -0.3005 -0.8685
vn 0.3943 -0.3006 -0.8684
vn 0.5254 0.1472 0.8380
vn 0.5256 0.1472 0.8379
vn 0.5255 0.1472 0.8380
vn 0.5253 0.1471 0.8381
vn -0.4833 -0.2573 -0.8368
vn -0.4477 0.1038 0.8882
vn 0.4477 0.1561 -0.8805
vn 0.4476 0.1561 -0.8805
vn -0.9970 -0.0780 -0.0000
vn 0.5639 0.0226 0.8255
vn 0.5639 0.0226 0.8256
vn 0.5640 0.0227 0.8255
vn 0.4159 -0.2214 -0.8820
vn 0.4158 -0.2213 -0.8821
vn -0.4835 -0.2557 -0.8372
vn -0.4977 0.0953 0.8621
vn -0.9692 -0.0589 -0.2391
vn -0.9692 -0.0588 -0.2390
vn -0.5631 0.2107 -0.7991
vn -0.5409 -0.2856 0.7911
vn -0.5409 -0.2857 0.7911
vn 0.9997 -0.0255 -0.0044
vn 0.9997 -0.0253 -0.0046
vn 0.9997 -0.0256 -0.0044
vn -0.9907 0.0474 -0.1276
vn 0.5917 -0.2337 0.7716
vn 0.5918 -0.2336 0.7715
vn 0.5915 -0.2338 0.7716
vn 0.6903 -0.6949 -0.2013
vn 0.6904 -0.6949 -0.2013
vn 0.6355 -0.0190 0.7719
vn 0.6356 -0.0189 0.7718
vn 0.6355 -0.0189 0.7718
vn 0.6253 -0.1636 -0.7630
vn 0.6253 -0.1636 -0.7631
vn -0.6098 -0.1000 -0.7862
vn -0.5170 0.0330 0.8553
vn -0.5171 0.0330 0.8553
vn -0.5170 0.0331 0.8554
vn 0.9913 -0.1289 0.0263
vn 0.9913 -0.1288 0.0263
vn -0.2991 0.4906 0.8184
vn -0.2990 0.4909 0.8183
vn -0.4074 -0.5805 -0.7051
vn 0.2995 0.4907 0.8183
vn 0.2995 0.4903 0.8184
vn 0.4985 -0.1131 0.8595
vn 0.4982 -0.1134 0.8596
vn -0.9676 -0.2414 -0.0743
vn -0.9675 -0.2415 -0.0744
vn -0.9676 -0.2413 -0.0742
vn 0.9571 -0.2883 -0.0300
vn 0.9572 -0.2880 -0.0303
vn 0.9571 -0.2880 -0.0303
vn -0.4984 -0.1130 0.8596
vn -0.4981 -0.1124 0.8598
vn -0.4711 -0.3432 -0.8126
vn -0.4714 -0.3429 -0.8125
vn -0.4713 -0.3430 -0.8125
vn -0.4712 -0.3431 -0.8126
vn 0.4451 -0.3660 -0.8173
vn 0.4451 -0.3659 -0.8173
vn 0.4454 -0.3663 -0.8170
vn -0.7194 0.2671 -0.6411
vn -0.7195 0.2672 -0.6410
vn -0.7194 0.2671 -0.6412
vn -0.9484 0.2386 -0.2089
vn 0.1010 -0.5988 0.7945
vn 0.1010 -0.5989 0.7944
vn 0.1013 -0.5987 0.7946
vn 0.1009 -0.5988 0.7945
vn 0.1062 -0.6612 -0.7427
vn 0.1062 -0.6611 -0.7428
vn 0.1062 -0.6612 -0.7426
vn 0.1063 -0.6613 -0.7425
vn -0.6775 0.0753 -0.7316
vn -0.6776 0.0755 -0.7316
vn -0.6775 0.0752 -0.7317
vn -0.6837 -0.3046 0.6632
vn -0.6837 -0.3046 0.6631
vn -0.6836 -0.3045 0.6633
vn -0.8323 0.5377 -0.1350
vn -0.8324 0.5375 -0.1351
vn -0.6734 0.7378 -0.0456
vn -0.6733 0.7380 -0.0455
vn -0.6734 0.7379 -0.0456
vn -0.4541 0.8892 -0.0558
vn -0.4542 0.8891 -0.0559
vn -0.4540 0.8893 -0.0557
vn 0.9811 -0.1929 -0.0186
vn 0.9811 -0.1928 -0.0186
vn -0.5617 0.0362 0.8265
vn -0.5616 0.0363 0.8266
vn -0.5615 0.0364 0.8267
vn -0.5734 -0.1553 -0.8044
vn -0.5734 -0.1554 -0.8044
vn 0.4766 -0.1749 -0.8616
vn 0.4766 -0.1750 -0.8615
vn 0.4765 -0.1747 -0.8616
vn 0.6445 -0.1054 0.7573
vn 0.6448 -0.1051 0.7571
vn -0.9795 -0.0731 -0.1879
vn -0.9795 -0.0729 -0.1877
vn -0.9795 -0.0729 -0.1876
vn -0.5155 0.8526 0.0854
vn -0.5154 0.8527 0.0852
vn -0.4585 0.8859 0.0707
vn -0.4584 0.8859 0.0707
vn -0.4383 0.8952 -0.0811
vn -0.4488 -0.1058 0.8873
vn -0.9890 -0.0766 -0.1269
vn -0.9889 -0.0767 -0.1271
vn -0.9889 -0.0766 -0.1269
vn -0.9890 -0.0766 -0.1267
vn -0.4462 -0.7997 0.4018
vn 0.5336 -0.1165 0.8376
vn 0.5336 -0.1165 0.8377
vn 0.5337 -0.1165 0.8376
vn 0.4575 0.0178 -0.8890
vn 0.4575 0.0177 -0.8890
vn -0.5133 0.0541 -0.8565
vn -0.5465 -0.1049 0.8308
vn -0.5465 -0.1049 0.8309
vn 0.9728 -0.2160 0.0842
vn 0.9727 -0.2161 0.0844
vn 0.9728 -0.2159 0.0841
vn -0.2804 -0.5328 0.7984
vn -0.3450 0.0255 0.9382
vn -0.3449 0.0259 0.9383
vn -0.4254 -0.6945 0.5803
vn -0.2512 -0.8633 -0.4376
vn -0.3770 -0.6575 -0.6524
vn 0.3661 -0.7387 0.5659
vn 0.3450 0.0256 0.9382
vn 0.3450 0.0252 0.9383
vn 0.3565 -0.5086 0.7837
vn 0.3763 -0.6579 -0.6524
vn 0.2504 -0.8636 -0.4377
vn -0.3700 0.7787 -0.5066
vn -0.3701 0.7787 -0.5067
vn -0.3701 0.7787 -0.5066
vn -0.9874 0.0824 -0.1353
vn -0.9874 0.0824 -0.1351
vn -0.9874 0.0823 -0.1354
vn -0.2074 -0.7550 0.6221
vn -0.2076 -0.7549 0.6221
vn -0.2077 -0.7549 0.6220
vn -0.2077 -0.7550 0.6220
vn 0.0516 -0.5652 -0.8233
vn 0.0515 -0.5651 -0.8234
vn 0.0516 -0.5654 -0.8232
vn 0.0516 -0.5653 -0.8233
vn -0.6030 -0.0877 -0.7929
vn -0.6030 -0.0878 -0.7929
vn -0.6296 -0.2012 0.7504
vn -0.6294 -0.2012 0.7506
vn -0.6295 -0.2012 0.7505
vn -0.8658 0.4963 0.0637
vn -0.7082 0.7012 0.0821
vn -0.7083 0.7011 0.0820
vn -0.5539 0.8310 0.0508
vn -0.5539 0.8311 0.0508
vn -0.5538 0.8311 0.0508
vn -0.7343 0.0581 0.6763
vn -0.7342 0.0582 0.6764
vn -0.7568 0.6121 0.2291
vn -0.7569 0.6120 0.2292
vn -0.7567 0.6123 0.2291
vn -0.7595 0.6485 -0.0515
vn -0.7594 0.6486 -0.0516
vn -0.7596 0.6484 -0.0514
vn -0.6889 0.7246 -0.0163
vn -0.6889 0.7246 -0.0164
vn -0.6889 0.7247 -0.0164
vn -0.8423 0.2810 0.4601
vn -0.8423 0.2808 0.4601
vn -0.8423 0.2809 0.4601
vn -0.8422 0.2811 0.4600
vn -0.9508 0.2701 -0.1518
vn -0.9032 0.4035 -0.1465
vn -0.9031 0.4036 -0.1466
vn -0.9032 0.4034 -0.1463
vn -0.8980 -0.4308 -0.0895
vn -0.8981 -0.4306 -0.0894
vn -0.8980 -0.4307 -0.0895
vn -0.7763 -0.6231 0.0952
vn -0.7763 -0.6231 0.0953
vn -0.9017 -0.4255 0.0770
vn -0.9016 -0.4256 0.0768
vn -0.9017 -0.4254 0.0771
vn -0.6382 -0.7690 -0.0354
vn -0.6873 -0.7173 0.1145
vn -0.6872 -0.7174 0.1146
vn -0.5783 -0.6942 -0.4286
vn -0.5782 -0.6942 -0.4287
vn -0.5780 -0.6941 -0.4290
vn -0.3609 0.7982 -0.4824
vn -0.3608 0.7983 -0.4822
vn -0.3610 0.7981 -0.4824
vn -0.6456 -0.3154 0.6955
vn -0.6457 -0.3154 0.6954
vn -0.6455 -0.3153 0.6956
vn -0.7788 0.5884 -0.2174
vn -0.8278 0.3041 -0.4715
vn -0.8277 0.3041 -0.4716
vn -0.5674 0.7362 -0.3689
vn -0.4822 0.4311 -0.7627
vn -0.4822 0.4310 -0.7627
vn -0.8901 0.0630 0.4515
vn -0.8901 0.0630 0.4514
vn -0.9090 -0.0907 0.4068
vn -0.9087 -0.0905 0.4076
vn -0.9085 -0.0904 0.4080
vn -0.6383 -0.0972 0.7636
vn -0.6385 -0.0971 0.7635
vn -0.6382 -0.0973 0.7637
vn -0.7124 -0.0860 0.6964
vn -0.4241 -0.0284 0.9052
vn -0.4158 -0.0202 0.9092
vn -0.4233 -0.0277 0.9056
vn -0.4302 -0.0346 0.9021
vn -0.4139 0.0508 -0.9089
vn -0.4140 0.0508 -0.9089
vn -0.8220 0.0515 -0.5672
vn -0.8220 0.0514 -0.5672
vn -0.9295 -0.0096 0.3687
vn -0.9315 -0.0133 0.3636
vn -0.9301 -0.0106 0.3672
vn -0.9279 -0.0070 0.3727
vn -0.9136 -0.0161 0.4064
vn -0.9136 -0.0161 0.4063
vn -0.8453 0.0694 -0.5298
vn -0.3830 0.0918 -0.9192
vn -0.4568 -0.0089 0.8895
vn -0.4568 -0.0088 0.8895
vn -0.9356 -0.0733 0.3454
vn -0.9626 -0.1272 0.2393
vn -0.9467 -0.0918 0.3087
vn -0.9184 -0.0400 0.3937
vn -0.8682 -0.0748 -0.4905
vn -0.8752 -0.0635 -0.4795
vn -0.8688 -0.0732 -0.4896
vn -0.8581 -0.0850 -0.5064
vn -0.4280 -0.1626 0.8890
vn -0.3915 -0.1320 0.9107
vn -0.4502 -0.1806 0.8745
vn -0.4672 -0.1960 0.8622
vn -0.3880 -0.0538 -0.9201
vn -0.5808 -0.8140 0.0070
vn -0.5517 -0.8312 0.0690
vn -0.5762 -0.7729 0.2656
vn -0.6633 -0.7074 0.2441
vn -0.9903 0.0722 0.1185
vn -0.9924 0.0672 0.1027
vn -0.9928 0.0557 0.1058
vn -0.9906 0.0610 0.1228
vn -0.9147 0.1210 -0.3855
vn -0.9138 0.1168 -0.3889
vn -0.9154 0.1244 -0.3828
vn -0.9164 0.1291 -0.3789
vn -0.9801 0.0640 0.1881
vn -0.9750 0.0735 0.2099
vn -0.9765 0.0734 0.2028
vn -0.9815 0.0654 0.1797
vn -0.3864 0.1850 -0.9036
vn -0.3865 0.1850 -0.9036
vn -0.3306 0.6263 -0.7060
vn -0.3305 0.6262 -0.7062
vn -0.8275 0.4823 0.2875
vn -0.8116 0.5073 0.2897
vn -0.8422 0.4701 0.2640
vn -0.8566 0.4368 0.2746
vn -0.8584 0.5129 0.0109
vn -0.8587 0.5077 0.0694
vn -0.8327 0.5396 0.1244
vn -0.8370 0.5472 -0.0004
vn -0.4824 0.0848 0.8718
vn -0.4823 0.0849 0.8719
vn -0.4036 0.8842 -0.2353
vn -0.4052 0.8837 -0.2342
vn -0.4050 0.8838 -0.2343
vn -0.4027 0.8844 -0.2359
vn -0.4242 0.9017 0.0833
vn -0.4146 0.9048 0.0968
vn -0.4148 0.9050 0.0940
vn -0.4440 0.8949 0.0445
vn -0.4064 0.8452 0.3470
vn -0.3605 0.8475 0.3896
vn -0.3987 0.8451 0.3561
vn -0.4367 0.8426 0.3153
vn -0.3286 0.6822 0.6532
vn -0.2939 0.7611 0.5782
vn -0.3413 0.6709 0.6583
vn -0.3844 0.5926 0.7078
vn -0.5877 0.5692 0.5750
vn -0.6127 0.4022 0.6803
vn -0.5438 0.6621 0.5156
vn -0.5929 0.6082 0.5278
vn -0.3744 0.1856 -0.9085
vn -0.9723 -0.2152 0.0915
vn -0.9694 -0.2438 -0.0280
vn -0.9659 -0.2577 0.0262
vn -0.9652 -0.2264 0.1313
vn -0.9214 0.1101 -0.3728
vn -0.9232 0.1179 -0.3657
vn -0.9201 0.1063 -0.3769
vn -0.9184 0.0992 -0.3830
vn -0.9594 -0.2447 0.1404
vn -0.9483 -0.2028 0.2440
vn -0.9687 -0.1612 0.1886
vn -0.9737 -0.2028 0.1036
vn -0.0297 0.3855 0.9222
vn -0.1500 0.8497 0.5055
vn 0.0038 0.4629 0.8864
vn -0.0529 0.3849 0.9214
vn -0.9480 0.1799 0.2625
vn -0.9737 0.0657 0.2180
vn -0.9531 0.1608 0.2566
vn -0.8545 0.3766 0.3579
vn -0.2046 0.5826 0.7866
vn 0.1602 0.8158 0.5557
vn -0.0317 0.8371 0.5462
vn -0.4121 0.4331 0.8016
vn -0.9684 -0.1346 0.2101
vn -0.9380 -0.2379 0.2521
vn -0.9759 -0.1097 0.1886
vn -0.9944 -0.0105 0.1054
vn -0.4110 -0.8944 0.1766
vn -0.3995 -0.8962 0.1929
vn -0.4186 -0.8933 0.1636
vn -0.4284 -0.8912 0.1489
vn -0.3506 -0.8087 0.4723
vn -0.3096 -0.7758 0.5498
vn -0.3598 -0.7140 0.6006
vn -0.3866 -0.8237 0.4147
vn -0.5184 -0.5192 0.6795
vn -0.5073 -0.4466 0.7370
vn -0.3884 -0.5601 0.7317
vn -0.3139 -0.6229 0.7166
vn -0.8229 0.4517 -0.3447
vn -0.8215 0.4561 -0.3423
vn -0.8255 0.4405 -0.3528
vn -0.8276 0.4322 -0.3582
vn -0.4840 0.5966 -0.6401
vn -0.4839 0.5967 -0.6402
vn -0.4840 0.5967 -0.6401
vn -0.4842 0.5966 -0.6400
vn 0.7085 0.7015 -0.0768
vn 0.7097 0.7000 -0.0791
vn 0.7051 0.7042 -0.0835
vn 0.7045 0.7048 -0.0838
vn -0.7310 0.4336 0.5269
vn -0.7312 0.4355 0.5251
vn -0.7288 0.4151 0.5446
vn -0.7274 0.4060 0.5532
vn -0.6174 0.6148 -0.4908
vn -0.2303 0.4861 -0.8430
vn -0.2301 0.4861 -0.8431
vn -0.2302 0.4861 -0.8431
vn 0.8653 0.4921 0.0954
vn 0.8652 0.4922 0.0953
vn 0.8652 0.4922 0.0952
vn 0.8653 0.4920 0.0955
vn -0.7611 0.2640 -0.5925
vn -0.7613 0.2641 -0.5921
vn -0.7612 0.2640 -0.5924
vn -0.8393 -0.2708 -0.4714
vn -0.8347 -0.2758 -0.4767
vn -0.8400 -0.2708 -0.4701
vn -0.8436 -0.2647 -0.4672
vn 0.9530 0.2883 0.0937
vn 0.9530 0.2881 0.0938
vn 0.9529 0.2884 0.0935
vn 0.9529 0.2885 0.0937
vn 0.2609 0.2814 -0.9235
vn 0.2607 0.2814 -0.9235
vn 0.2608 0.2814 -0.9235
vn 0.2610 0.2813 -0.9234
vn -0.3059 -0.2096 0.9287
vn -0.3085 -0.2243 0.9244
vn -0.3057 -0.2085 0.9290
vn -0.3035 -0.1953 0.9326
vn -0.1781 -0.9840 -0.0004
vn -0.1780 -0.9840 -0.0004
vn -0.2708 -0.6945 -0.6666
vn 0.0787 0.0643 -0.9948
vn 0.0787 0.0644 -0.9948
vn 0.0788 0.0641 -0.9948
vn -0.1024 0.3873 -0.9163
vn -0.1023 0.3874 -0.9162
vn -0.1024 0.3871 -0.9163
vn -0.7733 -0.4685 0.4272
vn -0.7734 -0.4685 0.4270
vn -0.7732 -0.4686 0.4273
vn -0.5747 0.2015 -0.7931
vn -0.4372 0.8519 -0.2883
vn -0.4369 0.8520 -0.2885
vn -0.4370 0.8520 -0.2884
vn -0.0005 -1.0000 0.0043
vn -0.0005 -1.0000 0.0020
vn -0.0013 -1.0000 0.0018
vn -0.0033 -1.0000 0.0046
vn 0.6453 -0.7639 -0.0000
vn 0.0083 -1.0000 -0.0000
vn 0.0038 -1.0000 0.0031
vn -0.0005 -0.9996 0.0281
vn 0.0023 -1.0000 0.0046
vn 0.0043 -1.0000 0.0018
vn -0.0005 -1.0000 -0.0000
vn 0.0003 -1.0000 0.0018
vn 0.1925 -0.5352 0.8225
vn 0.2552 -0.5095 0.8217
vn -0.0002 -0.3534 0.9355
vn 0.0004 0.8415 0.5402
s 1
usemtl 
f 114//1 110//1 21//1
f 114//1 21//1 17//1
f 18//2 22//2 45//2
f 18//2 45//2 41//2
f 123//3 119//3 36//3
f 123//3 36//3 32//3
f 126//4 116//5 20//4
f 126//4 20//4 14//6
f 111//7 129//8 26//7
f 111//7 26//7 24//9
f 118//10 128//10 15//10
f 118//10 15//10 33//10
f 132//11 122//11 29//11
f 132//11 29//11 27//11
f 137//12 135//12 68//12
f 137//12 68//12 62//12
f 31//13 35//13 60//13
f 31//13 60//13 56//13
f 23//14 25//15 49//14
f 23//14 49//14 47//14
f 13//16 19//17 44//16
f 13//16 44//16 38//16
f 34//18 16//18 40//18
f 34//18 40//18 58//18
f 28//19 30//19 53//19
f 28//19 53//19 51//19
f 206//20 202//21 108//20
f 206//20 108//20 104//22
f 142//23 140//23 63//24
f 142//23 63//24 81//23
f 152//25 146//25 77//26
f 152//25 77//26 75//26
f 133//27 153//28 69//29
f 133//27 69//29 65//30
f 148//31 144//32 84//32
f 148//31 84//32 80//32
f 155//33 149//34 74//33
f 155//33 74//33 72//35
f 90//36 94//37 164//37
f 90//36 164//37 161//38
f 215//39 209//40 97//41
f 215//39 97//41 95//42
f 220//43 218//43 91//44
f 220//43 91//44 85//45
f 201//46 223//46 87//46
f 201//46 87//46 105//46
f 210//47 204//48 101//48
f 210//47 101//48 99//48
f 216//49 212//49 93//49
f 216//49 93//49 89//49
f 8//50 9//51 121//52
f 8//50 121//52 131//53
f 11//54 2//54 127//54
f 11//54 127//54 117//54
f 6//55 7//56 130//57
f 6//55 130//57 112//58
f 1//59 4//59 115//59
f 1//59 115//59 125//59
f 10//60 12//61 120//62
f 10//60 120//62 124//62
f 3//63 5//64 109//64
f 3//63 109//64 113//63
f 48//65 50//66 150//67
f 48//65 150//67 156//68
f 55//69 59//70 143//71
f 55//69 143//71 147//72
f 42//73 46//74 154//74
f 42//73 154//74 134//74
f 52//75 54//75 145//76
f 52//75 145//76 151//75
f 57//77 39//78 139//79
f 57//77 139//79 141//80
f 37//81 43//81 136//82
f 37//81 136//82 138//81
f 177//83 160//84 473//83
f 177//83 473//83 186//85
f 103//86 107//87 179//88
f 103//86 179//88 175//87
f 96//89 98//90 167//91
f 96//89 167//91 165//92
f 86//93 92//94 162//95
f 86//93 162//95 157//96
f 106//97 88//98 159//97
f 106//97 159//97 176//99
f 100//100 102//101 171//102
f 100//100 171//102 169//102
f 172//103 178//104 187//105
f 172//103 187//105 182//105
f 180//106 185//106 195//107
f 180//106 195//107 190//108
f 188//109 194//110 199//109
f 188//109 199//109 196//111
f 66//112 70//113 213//114
f 66//112 213//114 217//113
f 76//115 78//116 205//117
f 76//115 205//117 211//116
f 82//118 64//118 222//118
f 82//118 222//118 200//119
f 61//120 67//121 219//120
f 61//120 219//120 221//122
f 71//123 73//124 208//125
f 71//123 208//125 214//123
f 79//126 83//127 203//128
f 79//126 203//128 207//129
f 189//130 197//131 229//131
f 189//130 229//131 225//131
f 224//132 228//132 235//133
f 224//132 235//133 231//133
f 230//134 234//134 240//134
f 230//134 240//134 236//134
f 357//135 353//135 262//135
f 357//135 262//135 258//135
f 259//136 263//136 286//136
f 259//136 286//136 282//136
f 366//3 362//3 277//3
f 366//3 277//3 273//3
f 368//137 358//137 261//137
f 368//137 261//137 255//137
f 354//138 372//138 267//139
f 354//138 267//139 265//139
f 361//140 371//140 256//140
f 361//140 256//140 274//140
f 375//141 365//142 270//141
f 375//141 270//141 268//141
f 380//143 378//143 308//143
f 380//143 308//143 302//143
f 272//144 276//144 301//144
f 272//144 301//144 297//144
f 264//145 266//145 290//145
f 264//145 290//145 288//145
f 254//146 260//146 284//146
f 254//146 284//146 278//146
f 275//147 257//147 281//147
f 275//147 281//147 299//147
f 269//148 271//148 295//148
f 269//148 295//148 293//148
f 320//149 324//150 351//149
f 320//149 351//149 347//151
f 385//152 383//152 304//152
f 385//152 304//152 322//152
f 395//153 389//153 319//153
f 395//153 319//153 317//153
f 376//154 396//154 310//154
f 376//154 310//154 306//154
f 391//155 387//155 325//155
f 391//155 325//155 321//155
f 398//156 392//156 314//157
f 398//156 314//157 312//157
f 408//158 704//158 339//158
f 313//159 315//159 340//160
f 313//159 340//160 336//161
f 303//162 309//162 331//162
f 303//162 331//162 326//162
f 323//163 305//163 328//164
f 323//163 328//164 348//163
f 316//165 318//165 344//166
f 316//165 344//166 342//166
f 307//167 311//168 335//167
f 307//167 335//167 330//169
f 249//170 250//171 364//171
f 249//170 364//171 374//172
f 252//173 243//173 370//173
f 252//173 370//173 360//173
f 247//174 248//175 373//176
f 247//174 373//176 355//177
f 242//178 245//178 359//178
f 242//178 359//178 369//178
f 1435//179 363//62 251//180
f 251//180 363//62 367//62
f 244//64 246//64 352//64
f 244//64 352//64 356//64
f 289//181 291//181 393//181
f 289//181 393//181 399//181
f 296//182 300//182 386//182
f 296//182 386//182 390//182
f 283//183 287//183 397//183
f 283//183 397//183 377//183
f 292//184 294//184 388//184
f 292//184 388//184 394//184
f 298//185 280//186 382//186
f 298//185 382//186 384//185
f 279//187 285//187 379//187
f 279//187 379//187 381//187
f 184//188 472//189 476//189
f 184//188 476//189 193//188
f 346//190 350//191 422//190
f 346//190 422//190 417//192
f 338//193 341//194 410//195
f 338//193 410//195 407//196
f 327//197 332//198 404//199
f 327//197 404//199 400//200
f 349//201 329//202 401//203
f 349//201 401//203 418//201
f 343//204 345//205 414//205
f 343//204 414//205 411//204
f 416//206 420//207 430//208
f 416//206 430//208 426//207
f 423//209 429//209 239//210
f 423//209 239//210 434//209
f 432//211 237//212 241//211
f 432//211 241//211 436//211
f 413//213 415//214 424//215
f 413//213 424//215 439//215
f 181//216 191//217 226//216
f 181//216 226//216 442//218
f 443//219 227//220 233//219
f 443//219 233//219 447//221
f 446//222 232//223 238//223
f 446//222 238//223 428//224
f 173//225 183//226 444//225
f 173//225 444//225 450//227
f 453//228 445//229 449//230
f 453//228 449//230 461//230
f 460//231 448//232 431//231
f 460//231 431//231 421//233
f 451//234 459//235 457//235
f 451//234 457//235 464//236
f 458//237 419//238 403//238
f 458//237 403//238 456//239
f 174//240 452//241 465//240
f 174//240 465//240 170//242
f 463//243 454//244 466//243
f 463//243 466//243 469//245
f 467//246 455//247 402//246
f 467//246 402//246 406//246
f 168//248 462//249 468//250
f 168//248 468//250 166//249
f 192//251 475//252 479//251
f 192//251 479//251 198//253
f 409//254 412//255 438//256
f 409//254 438//256 485//257
f 425//258 435//258 483//258
f 425//258 483//258 487//258
f 488//259 484//259 493//259
f 488//259 493//259 495//259
f 433//260 437//261 500//260
f 433//260 500//260 482//260
f 481//262 499//262 502//262
f 481//262 502//262 492//262
f 441//263 427//264 489//264
f 441//263 489//264 505//263
f 506//265 490//266 497//267
f 506//265 497//267 509//266
f 503//268 508//269 514//270
f 503//268 514//270 511//271
f 440//272 504//273 512//272
f 440//272 512//272 486//272
f 531//274 533//275 525//276
f 531//274 525//276 529//277
f 538//278 542//278 524//278
f 538//278 524//278 516//278
f 543//279 539//280 517//281
f 543//279 517//281 519//280
f 536//282 546//283 522//284
f 536//282 522//284 528//285
f 510//286 498//287 545//288
f 510//286 545//288 535//289
f 496//290 494//290 540//290
f 496//290 540//290 544//290
f 491//291 501//291 541//292
f 491//291 541//292 537//291
f 513//293 507//294 534//295
f 513//293 534//295 532//296
f 527//297 521//298 553//299
f 527//297 553//299 559//300
f 520//301 518//302 549//303
f 520//301 549//303 551//304
f 530//305 526//306 557//307
f 530//305 557//307 562//308
f 515//309 523//309 556//309
f 515//309 556//309 548//309
f 563//310 558//311 565//312
f 563//310 565//312 569//313
f 624//314 628//315 660//316
f 624//314 660//316 583//317
f 625//318 631//319 665//320
f 625//318 665//320 659//321
f 635//322 622//323 582//324
f 635//322 582//324 587//325
f 630//326 638//326 579//326
f 630//326 579//326 662//326
f 661//327 578//327 592//328
f 661//327 592//328 667//329
f 585//330 581//331 603//332
f 585//330 603//332 607//333
f 580//334 658//335 674//336
f 580//334 674//336 602//337
f 694//338 688//339 675//340
f 694//338 675//340 685//339
f 668//341 593//342 598//343
f 668//341 598//343 671//344
f 600//345 672//346 599//347
f 600//345 599//347 608//348
f 604//349 601//350 609//351
f 604//349 609//351 610//352
f 605//353 611//354 620//355
f 605//353 620//355 616//356
f 584//357 606//358 618//359
f 584//357 618//359 613//360
f 547//361 555//361 637//361
f 547//361 637//361 629//361
f 567//362 561//363 623//364
f 567//362 623//364 636//365
f 552//366 550//367 632//368
f 552//366 632//368 626//369
f 560//370 554//371 627//372
f 560//370 627//372 621//373
f 615//374 619//375 641//376
f 615//374 641//376 639//377
f 586//378 614//379 646//380
f 586//378 646//380 633//381
f 612//382 617//383 640//384
f 612//382 640//384 644//385
f 566//386 634//387 647//388
f 566//386 647//388 651//389
f 568//390 564//391 648//392
f 568//390 648//392 642//393
f 643//394 649//395 653//396
f 643//394 653//396 652//397
f 650//398 645//399 655//400
f 650//398 655//400 654//401
f 572//402 576//403 657//404
f 572//402 657//404 664//405
f 591//406 571//407 663//406
f 591//406 663//406 669//408
f 595//409 589//410 666//411
f 595//409 666//411 670//412
f 575//413 597//414 673//415
f 575//413 673//415 656//416
f 676//417 679//417 683//418
f 676//417 683//418 686//419
f 700//420 698//420 682//421
f 700//420 682//421 678//421
f 696//422 692//423 684//424
f 696//422 684//424 681//424
f 689//425 701//426 680//427
f 689//425 680//427 677//428
f 577//429 573//430 702//431
f 577//429 702//431 690//432
f 588//433 594//434 691//435
f 588//433 691//435 695//436
f 570//437 590//438 697//437
f 570//437 697//437 699//439
f 596//440 574//441 687//442
f 596//440 687//442 693//443
f 333//444 337//444 703//444
f 333//444 703//444 705//444
f 334//445 706//445 405//445
f 158//446 163//447 707//446
f 158//446 707//446 470//448
f 471//449 708//450 709//450
f 471//449 709//450 474//451
f 478//452 710//453 717//452
f 478//452 717//452 713//454
f 715//455 712//455 716//455
f 480//456 477//457 711//458
f 480//456 711//458 714//459
f 832//460 737//460 741//460
f 832//460 741//460 828//460
f 736//461 761//461 765//461
f 736//461 765//461 740//461
f 839//462 746//462 750//462
f 839//462 750//462 835//462
f 844//463 732//463 734//463
f 844//463 734//463 830//464
f 827//465 738//466 744//467
f 827//465 744//467 849//468
f 836//469 753//469 731//469
f 836//469 731//469 842//469
f 846//470 743//470 749//470
f 846//470 749//470 840//470
f 857//471 780//472 782//472
f 857//471 782//472 851//471
f 747//473 770//473 774//473
f 747//473 774//473 751//473
f 739//474 763//475 769//474
f 739//474 769//474 745//476
f 733//477 756//477 758//477
f 733//477 758//477 735//478
f 752//479 776//479 754//479
f 752//479 754//479 730//479
f 742//480 767//480 773//480
f 742//480 773//480 748//480
f 922//481 818//481 822//481
f 922//481 822//481 918//482
f 860//483 801//483 779//483
f 860//483 779//483 854//483
f 866//484 791//485 797//485
f 866//484 797//485 864//484
f 853//486 785//487 789//488
f 853//486 789//488 873//487
f 862//489 794//489 798//489
f 862//489 798//489 858//489
f 871//490 786//491 792//490
f 871//490 792//490 869//492
f 808//493 880//494 883//494
f 808//493 883//494 812//494
f 929//495 811//495 817//496
f 929//495 817//496 927//497
f 940//498 805//498 807//499
f 940//498 807//499 934//499
f 919//500 825//500 803//500
f 919//500 803//500 937//500
f 926//501 815//502 821//503
f 926//501 821//503 924//502
f 936//504 809//504 813//504
f 936//504 813//504 932//505
f 724//57 847//506 841//55
f 724//57 841//55 727//507
f 729//508 837//508 843//59
f 729//508 843//59 718//59
f 722//52 826//509 848//50
f 722//52 848//50 725//510
f 719//54 845//54 831//54
f 719//54 831//54 720//54
f 726//64 838//64 834//64
f 726//64 834//64 728//63
f 721//61 833//62 829//62
f 721//61 829//62 723//60
f 762//511 870//75 868//512
f 762//511 868//512 768//512
f 771//513 863//514 859//513
f 771//513 859//513 775//515
f 760//516 852//517 872//517
f 760//516 872//517 764//518
f 766//519 867//67 865//520
f 766//519 865//520 772//67
f 777//521 861//522 855//523
f 777//521 855//523 755//524
f 757//525 856//526 850//527
f 757//525 850//527 759//526
f 895//528 902//529 1187//528
f 895//528 1187//528 874//530
f 819//531 888//531 893//531
f 819//531 893//531 823//531
f 810//532 882//533 887//534
f 810//532 887//534 816//535
f 804//536 877//537 879//538
f 804//536 879//538 806//539
f 824//540 896//541 875//540
f 824//540 875//540 802//542
f 814//543 885//544 892//544
f 814//543 892//544 820//545
f 891//546 898//546 901//546
f 891//546 901//546 894//547
f 900//548 906//549 909//550
f 900//548 909//550 903//548
f 908//551 914//552 915//551
f 908//551 915//551 910//553
f 784//554 935//555 931//555
f 784//554 931//555 788//555
f 790//556 925//557 923//558
f 790//556 923//558 796//557
f 800//559 920//560 938//560
f 800//559 938//560 778//560
f 781//561 939//562 933//561
f 781//561 933//561 783//563
f 787//564 930//564 928//565
f 787//564 928//565 793//564
f 795//566 921//567 917//568
f 795//566 917//568 799//567
f 907//569 943//570 945//570
f 907//569 945//570 913//570
f 944//571 949//572 951//572
f 944//571 951//572 946//571
f 950//573 956//573 958//573
f 950//573 958//573 952//573
f 1075//3 978//3 982//3
f 1075//3 982//3 1071//3
f 977//144 1002//144 1006//144
f 977//144 1006//144 981//144
f 1082//135 987//135 991//135
f 1082//135 991//135 1078//135
f 1088//140 973//140 975//140
f 1088//140 975//140 1074//140
f 1070//141 979//141 985//141
f 1070//141 985//141 1092//142
f 1079//137 994//137 972//137
f 1079//137 972//137 1085//137
f 1089//139 984//139 990//139
f 1089//139 990//139 1083//574
f 1100//152 1022//152 1024//152
f 1100//152 1024//152 1094//152
f 988//136 1011//136 1015//136
f 988//136 1015//136 992//136
f 980//148 1004//148 1010//148
f 980//148 1010//148 986//148
f 974//147 998//147 1000//147
f 974//147 1000//147 976//147
f 993//146 1017//146 995//146
f 993//146 995//146 971//146
f 983//145 1007//145 1013//145
f 983//145 1013//145 989//145
f 1036//575 1061//576 1065//577
f 1036//575 1065//577 1040//578
f 1103//143 1042//143 1020//143
f 1103//143 1020//143 1097//143
f 1109//157 1031//156 1037//157
f 1109//157 1037//157 1107//157
f 1096//155 1026//155 1030//155
f 1096//155 1030//155 1116//155
f 1105//154 1035//154 1039//154
f 1105//154 1039//154 1101//154
f 1114//153 1028//153 1034//153
f 1114//153 1034//153 1112//153
f 1125//579 1052//579 1420//579
f 1027//580 1055//581 1060//581
f 1027//580 1060//581 1033//582
f 1021//583 1046//583 1050//584
f 1021//583 1050//584 1023//583
f 1041//585 1068//585 1044//585
f 1041//585 1044//585 1019//585
f 1032//586 1058//587 1064//587
f 1032//586 1064//587 1038//586
f 1025//588 1051//589 1056//588
f 1025//588 1056//588 1029//590
f 965//591 1090//592 1084//593
f 965//591 1084//593 968//594
f 970//595 1080//178 1086//178
f 970//595 1086//178 959//596
f 963//597 1069//598 1091//599
f 963//597 1091//599 966//600
f 960//601 1087//173 1073//173
f 960//601 1073//173 961//602
f 967//64 1081//64 1077//64
f 967//64 1077//64 969//64
f 962//62 1076//62 1072//62
f 962//62 1072//62 964//62
f 1003//184 1113//184 1111//184
f 1003//184 1111//184 1009//184
f 1012//183 1106//183 1102//183
f 1012//183 1102//183 1016//183
f 1001//182 1095//182 1115//182
f 1001//182 1115//182 1005//182
f 1008//181 1110//181 1108//181
f 1008//181 1108//181 1014//181
f 1018//187 1104//187 1098//187
f 1018//187 1098//187 996//187
f 997//186 1099//186 1093//186
f 997//186 1093//186 999//186
f 904//603 911//604 1193//605
f 904//603 1193//605 1188//605
f 1062//606 1131//607 1135//606
f 1062//606 1135//606 1066//608
f 1053//609 1126//610 1130//611
f 1053//609 1130//611 1059//612
f 1045//613 1120//614 1123//615
f 1045//613 1123//615 1049//616
f 1067//617 1139//617 1119//617
f 1067//617 1119//617 1043//618
f 1057//619 1129//619 1134//620
f 1057//619 1134//620 1063//621
f 1132//622 1141//622 1146//622
f 1132//622 1146//622 1137//622
f 1144//623 1150//624 953//624
f 1144//623 953//624 1147//624
f 1152//625 1154//626 957//626
f 1152//625 957//626 955//627
f 1127//628 1156//628 1143//628
f 1127//628 1143//628 1133//629
f 899//630 1162//631 942//630
f 899//630 942//630 905//632
f 1161//633 1165//634 947//633
f 1161//633 947//633 941//635
f 1166//636 1148//637 954//638
f 1166//636 954//638 948//638
f 890//639 1170//640 1160//641
f 890//639 1160//641 897//642
f 1167//643 1175//643 1163//643
f 1167//643 1163//643 1159//643
f 1176//644 1136//645 1145//644
f 1176//644 1145//644 1164//646
f 1169//647 1180//648 1171//649
f 1169//647 1171//649 1177//647
f 1178//650 1172//651 1117//650
f 1178//650 1117//650 1138//650
f 889//652 884//653 1179//652
f 889//652 1179//652 1168//654
f 1181//655 1185//655 1184//655
f 1181//655 1184//655 1174//655
f 1183//656 1121//656 1118//656
f 1183//656 1118//656 1173//657
f 886//658 881//659 1186//660
f 886//658 1186//660 1182//658
f 912//661 916//662 1197//661
f 912//661 1197//661 1194//663
f 1124//664 1203//665 1158//664
f 1124//664 1158//664 1128//666
f 1142//667 1207//667 1199//667
f 1142//667 1199//667 1149//667
f 1206//668 1215//668 1209//669
f 1206//668 1209//669 1198//668
f 1151//670 1200//670 1216//670
f 1151//670 1216//670 1153//670
f 1201//671 1210//672 1218//671
f 1201//671 1218//671 1217//671
f 1155//673 1221//673 1205//674
f 1155//673 1205//674 1140//674
f 1220//675 1225//676 1213//677
f 1220//675 1213//677 1204//676
f 1223//678 1229//679 1230//680
f 1223//678 1230//680 1226//680
f 1157//681 1202//681 1228//681
f 1157//681 1228//681 1222//681
f 1249//682 1247//683 1245//684
f 1249//682 1245//684 1253//685
f 1256//686 1234//687 1240//686
f 1256//686 1240//686 1258//686
f 1263//688 1239//689 1233//688
f 1263//688 1233//688 1255//689
f 1250//690 1242//691 1236//692
f 1250//690 1236//692 1260//693
f 1224//694 1251//694 1261//695
f 1224//694 1261//695 1212//694
f 1214//696 1262//696 1254//696
f 1214//696 1254//696 1208//696
f 1211//697 1257//697 1259//697
f 1211//697 1259//697 1219//697
f 1231//698 1248//699 1252//698
f 1231//698 1252//698 1227//699
f 1243//700 1276//701 1269//702
f 1243//700 1269//702 1237//703
f 1238//704 1271//705 1265//706
f 1238//704 1265//706 1232//707
f 1246//708 1280//709 1278//710
f 1246//708 1278//710 1244//711
f 1235//712 1266//712 1272//712
f 1235//712 1272//712 1241//712
f 1279//713 1285//714 1283//715
f 1279//713 1283//715 1277//716
f 1338//717 1297//718 1373//719
f 1338//717 1373//719 1342//720
f 1345//721 1374//722 1378//723
f 1345//721 1378//723 1347//724
f 1351//725 1301//726 1298//727
f 1351//725 1298//727 1340//728
f 1348//729 1381//729 1295//730
f 1348//729 1295//730 1354//729
f 1382//731 1385//732 1310//731
f 1382//731 1310//731 1296//731
f 1303//733 1321//734 1317//735
f 1303//733 1317//735 1299//736
f 1300//737 1318//738 1387//739
f 1300//737 1387//739 1375//740
f 1408//741 1402//742 1394//742
f 1408//741 1394//742 1406//742
f 1384//743 1390//744 1316//745
f 1384//743 1316//745 1309//746
f 1320//747 1326//748 1315//749
f 1320//747 1315//749 1389//750
f 1324//751 1328//752 1325//753
f 1324//751 1325//753 1319//754
f 1323//755 1334//756 1336//757
f 1323//755 1336//757 1327//758
f 1304//759 1330//760 1332//761
f 1304//759 1332//761 1322//762
f 1267//763 1349//763 1355//763
f 1267//763 1355//763 1273//763
f 1281//764 1350//765 1339//766
f 1281//764 1339//766 1274//767
f 1270//768 1344//769 1346//770
f 1270//768 1346//770 1264//771
f 1275//772 1341//773 1343//774
f 1275//772 1343//774 1268//775
f 1335//776 1357//777 1358//778
f 1335//776 1358//778 1337//779
f 1302//780 1353//781 1362//782
f 1302//780 1362//782 1329//783
f 1331//784 1364//785 1356//786
f 1331//784 1356//786 1333//787
f 1282//788 1365//789 1361//790
f 1282//788 1361//790 1352//791
f 1286//792 1360//793 1368//794
f 1286//792 1368//794 1284//795
f 1359//796 1369//797 1371//798
f 1359//796 1371//798 1367//799
f 1366//800 1370//801 1372//802
f 1366//800 1372//802 1363//803
f 1288//804 1379//805 1376//806
f 1288//804 1376//806 1292//807
f 1305//808 1383//809 1380//810
f 1305//808 1380//810 1289//811
f 1313//812 1391//813 1386//814
f 1313//812 1386//814 1307//815
f 1293//816 1377//817 1388//818
f 1293//816 1388//818 1311//819
f 1393//820 1401//820 1398//820
f 1393//820 1398//820 1396//820
f 1418//821 1397//822 1399//823
f 1418//821 1399//823 1412//821
f 1414//824 1400//825 1403//826
f 1414//824 1403//826 1410//827
f 1405//828 1392//829 1395//829
f 1405//828 1395//829 1417//830
f 1291//831 1404//832 1416//833
f 1291//831 1416//833 1287//834
f 1308//835 1415//836 1411//837
f 1308//835 1411//837 1314//838
f 1290//839 1419//840 1413//841
f 1290//839 1413//841 1306//842
f 1312//843 1409//844 1407//845
f 1312//843 1407//845 1294//846
f 1048//847 1423//848 1421//848
f 1048//847 1421//848 1054//848
f 1047//849 1122//849 1422//849
f 876//850 1190//851 1425//850
f 876//850 1425//850 878//852
f 1189//853 1195//854 1427//855
f 1189//853 1427//855 1424//855
f 1191//856 1428//857 1433//856
f 1191//856 1433//856 1426//858
f 1431//859 1434//859 1429//859
f 1196//860 1432//861 1430//862
f 1196//860 1430//862 1192//862
f 970//595 965//591 968//594
f 966//600 961//602 963//597
f 719//863 721//61 725//864
f 2//863 12//61 8//864
f 1439//865 1435//179 1440//866
f 1435//179 253//867 363//62
f 970//595 959//596 965//591
f 966//600 960//601 961//602
f 721//61 723//60 725//864
f 725//864 727//868 729//869
f 729//869 719//863 725//864
f 10//60 8//864 12//61
f 8//864 6//868 4//869
f 2//863 8//864 4//869
f 1440//866 249//870 1436//871
f 1436//871 247//868 1437//872
f 1437//872 245//873 1438//874
f 1438//874 243//873 1439//865
f 1439//865 253//867 1435//179
f 1435//179 251//180 1440//866
f 1440//866 1436//871 1439//865
f 1436//871 1437//872 1438//874
f 1439//865 1436//871 1438//874
f 641//376 644//385 640//384 639//377
f 652//875 653//876 654//401 655//400 645//399
f 1358//778 1357//777 1356//786 1364//785
f 1369//797 1363//803 1372//802 1370//801 1371//798
s 0
f 652//877 645//877 1363//877 1369//877 653//877
s 1
f 1364//878 647//878 640//878 1358//878 1356//786 1357//777
